G04 EasyPC Gerber Version 21.0.3 Build 4286 *
%FSLAX35Y35*%
%MOIN*%
%ADD78O,0.07000X0.12000*%
%ADD27R,0.03200X0.09600*%
%ADD76R,0.04937X0.05291*%
%ADD74R,0.06512X0.07299*%
%ADD29C,0.05331*%
%ADD72C,0.07142*%
%ADD28C,0.07299*%
%ADD79C,0.14780*%
%ADD26C,0.16748*%
%ADD73C,0.19012*%
%ADD75R,0.05291X0.04937*%
%ADD77R,0.06000X0.11000*%
%AMT77*0 Rounded Rectangle Pad at angle 0*4,1,24,-0.03206,-0.06000,0.03206,-0.06000,0.03297,-0.05985,0.03379,-0.05944,0.03444,-0.05879,0.03486,-0.05797,0.03500,-0.05706,0.03500,0.05706,0.03485,0.05797,0.03444,0.05879,0.03379,0.05944,0.03297,0.05986,0.03206,0.06000,-0.03206,0.06000,-0.03297,0.05985,-0.03379,0.05944,-0.03444,0.05879,-0.03486,0.05797,-0.03500,0.05706,-0.03500,-0.05706,-0.03485,-0.05797,-0.03444,-0.05879,-0.03379,-0.05944,-0.03297,-0.05986,-0.03206,-0.06000,0*%
%ADD77T77*%
X0Y0D02*
D02*
D26*
X19935Y19935D03*
Y374266D03*
X374266Y19935D03*
Y374266D03*
D02*
D27*
X335112Y298037D03*
Y316637D03*
X340112Y298037D03*
Y316637D03*
X345112Y298037D03*
Y316637D03*
X350112Y298037D03*
Y316637D03*
X355112Y298037D03*
Y316637D03*
X360112Y298037D03*
Y316637D03*
X365112Y298037D03*
Y316637D03*
X370112Y298037D03*
Y316637D03*
D02*
D28*
X63833Y94246D03*
D02*
D29*
X146510D03*
D02*
D72*
X254266Y349640D03*
X259659Y360821D03*
X265053Y349640D03*
X270447Y360821D03*
X275841Y349640D03*
X281234Y360821D03*
X286628Y349640D03*
X292022Y360821D03*
X297415Y349640D03*
D02*
D73*
X226648Y355230D03*
X325033D03*
D02*
D74*
X30762Y53400D03*
Y84896D03*
Y181352D03*
Y212848D03*
X48478Y53400D03*
Y84896D03*
Y181352D03*
Y212848D03*
X70132Y122297D03*
Y153793D03*
X87848Y122297D03*
Y153793D03*
X109502Y82927D03*
Y114423D03*
Y161667D03*
Y193163D03*
X127219Y82927D03*
Y114423D03*
Y161667D03*
Y193163D03*
X168557Y120329D03*
Y151825D03*
X186274Y120329D03*
Y151825D03*
X207927Y82927D03*
Y114423D03*
Y161667D03*
Y193163D03*
X225644Y82927D03*
Y114423D03*
Y161667D03*
Y193163D03*
X247297Y120329D03*
Y151825D03*
X265014Y120329D03*
Y151825D03*
X286667Y23872D03*
Y55368D03*
Y84896D03*
Y116392D03*
Y171510D03*
Y203006D03*
X304384Y23872D03*
Y55368D03*
Y84896D03*
Y116392D03*
Y171510D03*
Y203006D03*
X345722Y120329D03*
Y151825D03*
Y181352D03*
Y212848D03*
X363439Y120329D03*
Y151825D03*
Y181352D03*
Y212848D03*
D02*
D75*
X319585Y323085D03*
X326585D03*
X335112Y283715D03*
X342112D03*
X349112Y275841D03*
X356112D03*
X361112Y283715D03*
X368112D03*
D02*
D76*
X312612Y302837D03*
Y309837D03*
D02*
D77*
X153793Y362455D03*
D02*
D78*
X163793D03*
X173793D03*
X183793D03*
D02*
D79*
X337652Y256156D03*
X349935Y237258D03*
X362258Y256156D03*
X0Y0D02*
M02*
