G04 EasyPC Gerber Version 21.0.3 Build 4286 *
%FSLAX35Y35*%
%MOIN*%
%ADD12C,0.00394*%
%ADD10C,0.00500*%
%ADD13C,0.00600*%
%ADD14C,0.01000*%
%ADD11C,0.01181*%
X0Y0D02*
D02*
D10*
X14030Y92676D02*
X14342Y92051D01*
X14967Y91739*
X16217*
X16842Y92051*
X17155Y92676*
X16842Y93301*
X16217Y93614*
X14967*
X14342Y93926*
X14030Y94551*
X14342Y95176*
X14967Y95489*
X16217*
X16842Y95176*
X17155Y94551*
X19030Y95489D02*
X19342Y91739D01*
X20592Y93614*
X21842Y91739*
X22155Y95489*
X24030Y91739D02*
X27155D01*
X29030D02*
Y95489D01*
X30592Y93614*
X32155Y95489*
Y91739*
X34030Y92676D02*
X34342Y92051D01*
X34967Y91739*
X35592*
X36217Y92051*
X36530Y92676*
Y93301*
X36217Y93926*
X35592Y94239*
X34967*
X34342Y93926*
X34030Y93301*
Y92676*
X39655Y94239D02*
X40905D01*
X40280Y94864D02*
Y92051D01*
X40592Y91739*
X40905*
X41217Y92051*
X44030Y92676D02*
X44342Y92051D01*
X44967Y91739*
X45592*
X46217Y92051*
X46530Y92676*
Y93301*
X46217Y93926*
X45592Y94239*
X44967*
X44342Y93926*
X44030Y93301*
Y92676*
X49030Y91739D02*
Y94239D01*
Y93301D02*
X49342Y93926D01*
X49967Y94239*
X50592*
X51217Y93926*
X23872Y220629D02*
X24185Y220004D01*
X24809Y219691*
X26059*
X26685Y220004*
X26997Y220629*
X26685Y221254*
X26059Y221567*
X24809*
X24185Y221879*
X23872Y222504*
X24185Y223129*
X24809Y223441*
X26059*
X26685Y223129*
X26997Y222504*
X28872Y223441D02*
X29185Y219691D01*
X30435Y221567*
X31685Y219691*
X31997Y223441*
X33872Y219691D02*
X36997D01*
X38872D02*
Y223441D01*
X41997*
X41372Y221567D02*
X38872D01*
X45122Y219691D02*
Y222191D01*
Y223129D02*
X50435Y219691*
X50122D01*
Y223441*
X56372Y220004D02*
X56059Y219691D01*
X55435*
X54809*
X54185Y220004*
X53872Y220629*
Y221567*
X54185Y221879*
X54809Y222191*
X55435*
X56059Y221879*
X56372Y221567*
Y221254*
X56059Y220941*
X55435Y220629*
X54809*
X54185Y220941*
X53872Y221254*
X39187Y230407D02*
X299030D01*
Y340644*
X39187*
Y230407*
X67179Y161574D02*
X67492Y160949D01*
X68117Y160636*
X69367*
X69992Y160949*
X70304Y161574*
X69992Y162199*
X69367Y162511*
X68117*
X67492Y162824*
X67179Y163449*
X67492Y164074*
X68117Y164386*
X69367*
X69992Y164074*
X70304Y163449*
X72179Y164386D02*
X72492Y160636D01*
X73742Y162511*
X74992Y160636*
X75304Y164386*
X77179Y160636D02*
X80304D01*
X82179D02*
Y164386D01*
X83742Y162511*
X85304Y164386*
Y160636*
X87492Y160949D02*
X88117Y160636D01*
X88742*
X89367Y160949*
X89679Y161574*
Y163449*
X89367Y164074*
X88742Y164386*
X88117*
X87492Y164074*
X87179Y163449*
Y161574*
X87492Y160949*
X89367Y164074*
X106549Y71023D02*
X106862Y70398D01*
X107487Y70085*
X108737*
X109362Y70398*
X109674Y71023*
X109362Y71648*
X108737Y71960*
X107487*
X106862Y72273*
X106549Y72898*
X106862Y73523*
X107487Y73835*
X108737*
X109362Y73523*
X109674Y72898*
X111549Y73835D02*
X111862Y70085D01*
X113112Y71960*
X114362Y70085*
X114674Y73835*
X116549Y70085D02*
X119674D01*
X121549D02*
X124674Y73835D01*
X121549D02*
X124674Y70085D01*
X128112D02*
Y71960D01*
X126549Y73835*
X128112Y71960D02*
X129674Y73835D01*
X131862Y70398D02*
X132487Y70085D01*
X133112*
X133737Y70398*
X134049Y71023*
Y72898*
X133737Y73523*
X133112Y73835*
X132487*
X131862Y73523*
X131549Y72898*
Y71023*
X131862Y70398*
X133737Y73523*
X106549Y200944D02*
X106862Y200319D01*
X107487Y200006*
X108737*
X109362Y200319*
X109674Y200944*
X109362Y201569*
X108737Y201881*
X107487*
X106862Y202194*
X106549Y202819*
X106862Y203444*
X107487Y203756*
X108737*
X109362Y203444*
X109674Y202819*
X111549Y203756D02*
X111862Y200006D01*
X113112Y201881*
X114362Y200006*
X114674Y203756*
X116549Y200006D02*
X119674D01*
X121549Y203756D02*
X124674D01*
X121549Y200006*
X124674*
X126862Y200319D02*
X127487Y200006D01*
X128112*
X128737Y200319*
X129049Y200944*
Y202819*
X128737Y203444*
X128112Y203756*
X127487*
X126862Y203444*
X126549Y202819*
Y200944*
X126862Y200319*
X128737Y203444*
X165604Y159606D02*
X165917Y158980D01*
X166542Y158668*
X167792*
X168417Y158980*
X168730Y159606*
X168417Y160230*
X167792Y160543*
X166542*
X165917Y160856*
X165604Y161480*
X165917Y162106*
X166542Y162418*
X167792*
X168417Y162106*
X168730Y161480*
X170604Y162418D02*
X170917Y158668D01*
X172167Y160543*
X173417Y158668*
X173730Y162418*
X175604Y158668D02*
X178730D01*
X180604D02*
X183730Y162418D01*
X180604D02*
X183730Y158668D01*
X185604Y159918D02*
X188104D01*
X188793Y340644D02*
X148793D01*
Y372455*
X188793*
Y340644*
X191195Y373048D02*
Y370235D01*
X191507Y369610*
X192132Y369298*
X193382*
X194007Y369610*
X194320Y370235*
Y373048*
X198695Y369298D02*
X196195D01*
X198382Y371485*
X198695Y372110*
X198382Y372735*
X197757Y373048*
X196820*
X196195Y372735*
X204974Y71023D02*
X205287Y70398D01*
X205912Y70085*
X207162*
X207787Y70398*
X208100Y71023*
X207787Y71648*
X207162Y71960*
X205912*
X205287Y72273*
X204974Y72898*
X205287Y73523*
X205912Y73835*
X207162*
X207787Y73523*
X208100Y72898*
X209974Y73835D02*
X210287Y70085D01*
X211537Y71960*
X212787Y70085*
X213100Y73835*
X214974Y70085D02*
X218100D01*
X221537D02*
Y71960D01*
X219974Y73835*
X221537Y71960D02*
X223100Y73835D01*
X224974Y71335D02*
X227474D01*
X204974Y200944D02*
X205287Y200319D01*
X205912Y200006*
X207162*
X207787Y200319*
X208100Y200944*
X207787Y201569*
X207162Y201881*
X205912*
X205287Y202194*
X204974Y202819*
X205287Y203444*
X205912Y203756*
X207162*
X207787Y203444*
X208100Y202819*
X209974Y203756D02*
X210287Y200006D01*
X211537Y201881*
X212787Y200006*
X213100Y203756*
X214974Y200006D02*
X218100D01*
X221537D02*
Y201881D01*
X219974Y203756*
X221537Y201881D02*
X223100Y203756D01*
X224974Y201256D02*
X227474D01*
X226224Y200006D02*
Y202506D01*
X246313Y159606D02*
X246626Y158980D01*
X247250Y158668*
X248500*
X249126Y158980*
X249438Y159606*
X249126Y160230*
X248500Y160543*
X247250*
X246626Y160856*
X246313Y161480*
X246626Y162106*
X247250Y162418*
X248500*
X249126Y162106*
X249438Y161480*
X251313Y162418D02*
X251626Y158668D01*
X252876Y160543*
X254126Y158668*
X254438Y162418*
X256313Y158668D02*
X259438D01*
X261313D02*
X264438Y162418D01*
X261313D02*
X264438Y158668D01*
X266313Y159918D02*
X268813D01*
X267563Y158668D02*
Y161168D01*
X283715Y13936D02*
X284027Y13311D01*
X284652Y12998*
X285902*
X286527Y13311*
X286840Y13936*
X286527Y14561*
X285902Y14874*
X284652*
X284027Y15186*
X283715Y15811*
X284027Y16436*
X284652Y16748*
X285902*
X286527Y16436*
X286840Y15811*
X288715Y16748D02*
X289027Y12998D01*
X290277Y14874*
X291527Y12998*
X291840Y16748*
X293715Y12998D02*
X296840D01*
X298715Y16748D02*
X301840D01*
X298715Y12998*
X301840*
X303715Y14248D02*
X306215D01*
X283715Y124172D02*
X284027Y123547D01*
X284652Y123235*
X285902*
X286527Y123547*
X286840Y124172*
X286527Y124797*
X285902Y125110*
X284652*
X284027Y125422*
X283715Y126047*
X284027Y126672*
X284652Y126985*
X285902*
X286527Y126672*
X286840Y126047*
X288715Y126985D02*
X289027Y123235D01*
X290277Y125110*
X291527Y123235*
X291840Y126985*
X293715Y123235D02*
X296840D01*
X298715Y126985D02*
X301840D01*
X298715Y123235*
X301840*
X303715Y124485D02*
X306215D01*
X304965Y123235D02*
Y125735D01*
X283715Y210787D02*
X284027Y210161D01*
X284652Y209849*
X285902*
X286527Y210161*
X286840Y210787*
X286527Y211411*
X285902Y211724*
X284652*
X284027Y212037*
X283715Y212661*
X284027Y213287*
X284652Y213599*
X285902*
X286527Y213287*
X286840Y212661*
X288715Y213599D02*
X289027Y209849D01*
X290277Y211724*
X291527Y209849*
X291840Y213599*
X293715Y209849D02*
X296840D01*
X298715D02*
Y213599D01*
X300277Y211724*
X301840Y213599*
Y209849*
X303715Y212037D02*
X304340Y212349D01*
X305277*
X305902Y212037*
X306215Y211411*
Y210474*
X305902Y210161*
X305277Y209849*
X304652*
X304027Y210161*
X303715Y210474*
Y210787*
X304027Y211099*
X304652Y211411*
X305277*
X305902Y211099*
X306215Y210787*
Y210474D02*
Y209849D01*
X311215Y211411D02*
X310902Y212037D01*
X310277Y212349*
X309652*
X309027Y212037*
X308715Y211411*
Y211099*
X309027Y210474*
X309652Y210161*
X310277*
X310902Y210474*
X311215Y211099*
Y212349D02*
Y209849D01*
X310902Y209224*
X310277Y208911*
X309340*
X308715Y209224*
X306400Y303548D02*
X306712Y303236D01*
X307025Y302611*
Y301673*
X306712Y301048*
X306400Y300736*
X305775Y300423*
X304525*
X303900Y300736*
X303587Y301048*
X303275Y301673*
Y302611*
X303587Y303236*
X303900Y303548*
X306712Y305423D02*
X307025Y306048D01*
Y306986*
X306712Y307611*
X306087Y307923*
X305775*
X305150Y307611*
X304837Y306986*
Y305423*
X303275*
Y307923*
X309962Y312487D02*
X315262D01*
Y300187*
X309962*
Y312487*
X316935Y320435D02*
Y325735D01*
X329235*
Y320435*
X316935*
X320950Y328128D02*
X320637Y327815D01*
X320012Y327502*
X319075*
X318450Y327815*
X318137Y328128*
X317825Y328752*
Y330002*
X318137Y330628*
X318450Y330940*
X319075Y331252*
X320012*
X320637Y330940*
X320950Y330628*
X323137Y327815D02*
X323762Y327502D01*
X324387*
X325012Y327815*
X325325Y328440*
X325012Y329065*
X324387Y329378*
X323762*
X324387D02*
X325012Y329690D01*
X325325Y330315*
X325012Y330940*
X324387Y331252*
X323762*
X323137Y330940*
X324175Y294674D02*
Y295924D01*
Y295299D02*
X320425D01*
Y294674D02*
Y295924D01*
X323550Y301862D02*
X323862Y301549D01*
X324175Y300924*
Y299987*
X323862Y299362*
X323550Y299049*
X322925Y298737*
X321675*
X321050Y299049*
X320737Y299362*
X320425Y299987*
Y300924*
X320737Y301549*
X321050Y301862*
X324175Y304362D02*
Y305612D01*
Y304987D02*
X320425D01*
X321050Y304362*
X332462Y281065D02*
Y286365D01*
X344762*
Y281065*
X332462*
X336037Y288679D02*
X335724Y288366D01*
X335099Y288054*
X334161*
X333537Y288366*
X333224Y288679*
X332911Y289304*
Y290554*
X333224Y291179*
X333537Y291491*
X334161Y291804*
X335099*
X335724Y291491*
X336037Y291179*
X338537Y288054D02*
X339787D01*
X339161D02*
Y291804D01*
X338537Y291179*
X342770Y110393D02*
X343082Y109768D01*
X343707Y109455*
X344957*
X345582Y109768*
X345895Y110393*
X345582Y111018*
X344957Y111330*
X343707*
X343082Y111643*
X342770Y112268*
X343082Y112893*
X343707Y113205*
X344957*
X345582Y112893*
X345895Y112268*
X347770Y113205D02*
X348082Y109455D01*
X349332Y111330*
X350582Y109455*
X350895Y113205*
X352770Y109455D02*
X355895D01*
X357770D02*
X360895Y113205D01*
X357770D02*
X360895Y109455D01*
X364332D02*
Y111330D01*
X362770Y113205*
X364332Y111330D02*
X365895Y113205D01*
X367770Y109768D02*
X368395Y109455D01*
X369645*
X370270Y109768*
Y110393*
X369645Y110705*
X368395*
X367770Y111018*
Y111643*
X368395Y111955*
X369645*
X370270Y111643*
X375270Y109768D02*
X374957Y109455D01*
X374332*
X373707*
X373082Y109768*
X372770Y110393*
Y111330*
X373082Y111643*
X373707Y111955*
X374332*
X374957Y111643*
X375270Y111330*
Y111018*
X374957Y110705*
X374332Y110393*
X373707*
X373082Y110705*
X372770Y111018*
X378395Y111955D02*
X379645D01*
X379020Y112580D02*
Y109768D01*
X379332Y109455*
X379645*
X379957Y109768*
X342770Y220629D02*
X343082Y220004D01*
X343707Y219691*
X344957*
X345582Y220004*
X345895Y220629*
X345582Y221254*
X344957Y221567*
X343707*
X343082Y221879*
X342770Y222504*
X343082Y223129*
X343707Y223441*
X344957*
X345582Y223129*
X345895Y222504*
X347770Y223441D02*
X348082Y219691D01*
X349332Y221567*
X350582Y219691*
X350895Y223441*
X352770Y219691D02*
X355895D01*
X357770Y223441D02*
X360895D01*
X357770Y219691*
X360895*
X362770Y220004D02*
X363395Y219691D01*
X364645*
X365270Y220004*
Y220629*
X364645Y220941*
X363395*
X362770Y221254*
Y221879*
X363395Y222191*
X364645*
X365270Y221879*
X370270Y220004D02*
X369957Y219691D01*
X369332*
X368707*
X368082Y220004*
X367770Y220629*
Y221567*
X368082Y221879*
X368707Y222191*
X369332*
X369957Y221879*
X370270Y221567*
Y221254*
X369957Y220941*
X369332Y220629*
X368707*
X368082Y220941*
X367770Y221254*
X373395Y222191D02*
X374645D01*
X374020Y222817D02*
Y220004D01*
X374332Y219691*
X374645*
X374957Y220004*
X348753Y282057D02*
X348441Y281744D01*
X347815Y281431*
X346878*
X346253Y281744*
X345941Y282057*
X345628Y282681*
Y283931*
X345941Y284557*
X346253Y284869*
X346878Y285181*
X347815*
X348441Y284869*
X348753Y284557*
X353128Y281431D02*
X350628D01*
X352815Y283619*
X353128Y284244*
X352815Y284869*
X352191Y285181*
X351253*
X350628Y284869*
X346462Y273191D02*
Y278491D01*
X358762*
Y273191*
X346462*
X358462Y281065D02*
Y286365D01*
X370762*
Y281065*
X358462*
X361627Y288679D02*
X361315Y288366D01*
X360689Y288054*
X359752*
X359127Y288366*
X358815Y288679*
X358502Y289304*
Y290554*
X358815Y291179*
X359127Y291491*
X359752Y291804*
X360689*
X361315Y291491*
X361627Y291179*
X365065Y288054D02*
Y291804D01*
X363502Y289304*
X366002*
D02*
D11*
X315211Y246313D02*
G75*
G03X319148Y262061I1969J7874D01*
G01*
G75*
G03X315211Y246313I-1969J-7874*
G01*
Y252219D02*
G75*
G03X319148Y256156I1969J1969D01*
G01*
G75*
G03X315211Y252219I-1969J-1969*
G01*
G36*
G75*
G03X319148Y256156I1969J1969*
G01*
G75*
G03X315211Y252219I-1969J-1969*
G01*
G37*
X317179Y246313D02*
Y232533D01*
Y256156D02*
Y271904D01*
D02*
D12*
X33715Y379679D02*
Y385585D01*
X36175Y382632*
X38636Y385585*
Y379679*
X41589D02*
Y385585D01*
X44541*
X45526Y385093*
X46018Y384600*
X46510Y383616*
Y381648*
X46018Y380663*
X45526Y380171*
X44541Y379679*
X41589*
X49463D02*
X54384Y385585D01*
X49463D02*
X54384Y379679D01*
X57337Y381648D02*
X61274D01*
X69148Y379679D02*
X65211D01*
X68656Y383124*
X69148Y384108*
X68656Y385093*
X67671Y385585*
X66195*
X65211Y385093*
X73577Y380171D02*
X74561Y379679D01*
X75545*
X76530Y380171*
X77022Y381156*
Y384108*
X76530Y385093*
X75545Y385585*
X74561*
X73577Y385093*
X73085Y384108*
Y381156*
X73577Y380171*
X76530Y385093*
X92770Y383124D02*
X91785Y383616D01*
X90309*
X89325Y383124*
X88833Y382140*
Y381156*
X89325Y380171*
X90309Y379679*
X91785*
X92770Y380171*
X96707Y381156D02*
X97199Y380171D01*
X98183Y379679*
X99167*
X100152Y380171*
X100644Y381156*
Y382140*
X100152Y383124*
X99167Y383616*
X98183*
X97199Y383124*
X96707Y382140*
Y381156*
X104581Y379679D02*
Y383616D01*
Y382140D02*
X105073Y383124D01*
X106057Y383616*
X107041*
X108026Y383124*
X108518Y382140*
Y379679*
X113439Y383616D02*
X115407D01*
X114423Y384600D02*
Y380171D01*
X114915Y379679*
X115407*
X115900Y380171*
X120329Y379679D02*
Y383616D01*
Y382140D02*
X120821Y383124D01*
X121805Y383616*
X122789*
X123774Y383124*
X128203Y381156D02*
X128695Y380171D01*
X129679Y379679*
X130663*
X131648Y380171*
X132140Y381156*
Y382140*
X131648Y383124*
X130663Y383616*
X129679*
X128695Y383124*
X128203Y382140*
Y381156*
X138537Y379679D02*
X138045D01*
Y385585*
X146411Y379679D02*
X145919D01*
Y385585*
X155762Y380171D02*
X155270Y379679D01*
X154285*
X153301*
X152317Y380171*
X151825Y381156*
Y382632*
X152317Y383124*
X153301Y383616*
X154285*
X155270Y383124*
X155762Y382632*
Y382140*
X155270Y381648*
X154285Y381156*
X153301*
X152317Y381648*
X151825Y382140*
X159699Y379679D02*
Y383616D01*
Y382140D02*
X160191Y383124D01*
X161175Y383616*
X162159*
X163144Y383124*
X34699Y370230D02*
X36667D01*
X35683D02*
Y376136D01*
X34699Y375152*
X43065Y370230D02*
X44049Y370722D01*
X45033Y371707*
X45526Y373183*
Y374659*
X45033Y375644*
X44049Y376136*
X43065*
X42081Y375644*
X41589Y374659*
X42081Y373675*
X43065Y373183*
X44049*
X45033Y373675*
X45526Y374659*
X49955Y370722D02*
X50939Y370230D01*
X51923*
X52907Y370722*
X53400Y371707*
Y374659*
X52907Y375644*
X51923Y376136*
X50939*
X49955Y375644*
X49463Y374659*
Y371707*
X49955Y370722*
X52907Y375644*
X58321Y370230D02*
X60289D01*
X59305D02*
Y376136D01*
X58321Y375152*
X66195Y370230D02*
X68163D01*
X67179D02*
Y376136D01*
X66195Y375152*
X77022Y370230D02*
X73085D01*
X76530Y373675*
X77022Y374659*
X76530Y375644*
X75545Y376136*
X74069*
X73085Y375644*
X80959Y373675D02*
X81943Y374167D01*
X83419*
X84404Y373675*
X84896Y372691*
Y371215*
X84404Y370722*
X83419Y370230*
X82435*
X81451Y370722*
X80959Y371215*
Y371707*
X81451Y372199*
X82435Y372691*
X83419*
X84404Y372199*
X84896Y371707*
Y371215D02*
Y370230D01*
X307829Y262061D02*
Y265998D01*
X309797Y264030D02*
X305860D01*
X309305Y269935D02*
X309797Y270919D01*
Y272396*
X309305Y273380*
X308321Y273872*
X307829*
X306844Y273380*
X306352Y272396*
Y269935*
X303892*
Y273872*
Y277809D02*
X309797Y280270D01*
X303892Y282730*
X327022Y228104D02*
Y229581D01*
X327514*
X328498Y229089*
X328990Y228596*
X329482Y227612*
Y226628*
X328990Y225644*
X328498Y225152*
X327514Y224659*
X325545*
X324561Y225152*
X324069Y225644*
X323577Y226628*
Y227612*
X324069Y228596*
X324561Y229089*
X325545Y229581*
X329482Y232533D02*
X323577D01*
X329482Y237455*
X323577*
X329482Y240407D02*
X323577D01*
Y243360*
X324069Y244344*
X324561Y244837*
X325545Y245329*
X327514*
X328498Y244837*
X328990Y244344*
X329482Y243360*
Y240407*
D02*
D13*
X332912Y308537D02*
G75*
G02Y306137J-1200D01*
G01*
Y311637D02*
Y303037D01*
X372312D02*
Y311637D01*
D02*
D14*
X27219Y57337D02*
Y80959D01*
X52022*
Y57337*
X27219*
Y185289D02*
Y208911D01*
X52022*
Y185289*
X27219*
X52344Y88541D02*
G75*
G02Y88093J-224D01*
G01*
Y88541D02*
G75*
G02Y88093J-224D01*
G01*
G75*
G02Y88541J224*
G01*
Y216494D02*
G75*
G02Y216046J-224D01*
G01*
Y216494D02*
G75*
G02Y216046J-224D01*
G01*
G75*
G02Y216494J224*
G01*
X59305Y4187D02*
Y220722D01*
X66589Y126234D02*
Y149856D01*
X91392*
Y126234*
X66589*
X91715Y157439D02*
G75*
G02Y156991J-224D01*
G01*
Y157439D02*
G75*
G02Y156991J-224D01*
G01*
G75*
G02Y157439J224*
G01*
X105959Y86864D02*
Y110486D01*
X130762*
Y86864*
X105959*
Y165604D02*
Y189226D01*
X130762*
Y165604*
X105959*
X131085Y118069D02*
G75*
G02Y117620J-224D01*
G01*
Y118069D02*
G75*
G02Y117620J-224D01*
G01*
G75*
G02Y118069J224*
G01*
Y196809D02*
G75*
G02Y196361J-224D01*
G01*
Y196809D02*
G75*
G02Y196361J-224D01*
G01*
G75*
G02Y196809J224*
G01*
X157730Y4187D02*
Y220722D01*
X165014Y124266D02*
Y147888D01*
X189817*
Y124266*
X165014*
X190140Y155470D02*
G75*
G02Y155022J-224D01*
G01*
Y155470D02*
G75*
G02Y155022J-224D01*
G01*
G75*
G02Y155470J224*
G01*
X204384Y86864D02*
Y110486D01*
X229187*
Y86864*
X204384*
Y165604D02*
Y189226D01*
X229187*
Y165604*
X204384*
X229510Y118069D02*
G75*
G02Y117620J-224D01*
G01*
Y118069D02*
G75*
G02Y117620J-224D01*
G01*
G75*
G02Y118069J224*
G01*
Y196809D02*
G75*
G02Y196361J-224D01*
G01*
Y196809D02*
G75*
G02Y196361J-224D01*
G01*
G75*
G02Y196809J224*
G01*
X243754Y124266D02*
Y147888D01*
X268557*
Y124266*
X243754*
X268880Y155470D02*
G75*
G02Y155022J-224D01*
G01*
Y155470D02*
G75*
G02Y155022J-224D01*
G01*
G75*
G02Y155470J224*
G01*
X273872Y4187D02*
Y118360D01*
X283124Y27809D02*
Y51431D01*
X307927*
Y27809*
X283124*
Y88833D02*
Y112455D01*
X307927*
Y88833*
X283124*
Y175447D02*
Y199069D01*
X307927*
Y175447*
X283124*
X308250Y59013D02*
G75*
G02Y58565J-224D01*
G01*
Y59013D02*
G75*
G02Y58565J-224D01*
G01*
G75*
G02Y59013J224*
G01*
Y120037D02*
G75*
G02Y119589J-224D01*
G01*
Y120037D02*
G75*
G02Y119589J-224D01*
G01*
G75*
G02Y120037J224*
G01*
Y206651D02*
G75*
G02Y206203J-224D01*
G01*
Y206651D02*
G75*
G02Y206203J-224D01*
G01*
G75*
G02Y206651J224*
G01*
X330959Y4187D02*
Y220722D01*
X342179Y124266D02*
Y147888D01*
X366982*
Y124266*
X342179*
Y185289D02*
Y208911D01*
X366982*
Y185289*
X342179*
X367305Y155470D02*
G75*
G02Y155022J-224D01*
G01*
Y155470D02*
G75*
G02Y155022J-224D01*
G01*
G75*
G02Y155470J224*
G01*
Y216494D02*
G75*
G02Y216046J-224D01*
G01*
Y216494D02*
G75*
G02Y216046J-224D01*
G01*
G75*
G02Y216494J224*
G01*
X0Y0D02*
M02*
