G04 EasyPC Gerber Version 21.0.3 Build 4286 *
%FSLAX35Y35*%
%MOIN*%
%ADD12C,0.00394*%
%ADD10C,0.00500*%
%ADD116C,0.00787*%
%ADD14C,0.01000*%
%ADD11C,0.01181*%
X0Y0D02*
D02*
D10*
X71346Y137596D02*
X93346D01*
Y129596*
X71346*
Y137596*
X76721Y141409D02*
X77034Y141096D01*
X77659Y140784*
X78596*
X79221Y141096*
X79534Y141409*
X79846Y142034*
Y143284*
X79534Y143909*
X79221Y144222*
X78596Y144534*
X77659*
X77034Y144222*
X76721Y143909*
X74846Y140784D02*
X72346Y144534D01*
X74846*
X99706Y149856D02*
X95956D01*
Y147669*
X96269Y147044*
X96894Y146731*
X97519Y147044*
X97831Y147669*
Y149856*
Y147669D02*
X99706Y146731D01*
Y143919D02*
X99394Y143294D01*
X98769Y142669*
X97831Y142356*
X96894*
X96269Y142669*
X95956Y143294*
Y143919*
X96269Y144544*
X96894Y144856*
X97519Y144544*
X97831Y143919*
Y143294*
X97519Y142669*
X96894Y142356*
X106561Y150746D02*
X101261D01*
Y138446*
X106561*
Y150746*
X108722Y147533D02*
X112472D01*
Y144408*
Y141908D02*
Y140658D01*
Y141283D02*
X108722D01*
X109347Y141908*
X129234Y132140D02*
X125484D01*
Y129952*
X125796Y129327*
X126421Y129015*
X127046Y129327*
X127359Y129952*
Y132140*
Y129952D02*
X129234Y129015D01*
X128296Y127140D02*
X127671Y126827D01*
X127359Y126202*
Y125577*
X127671Y124952*
X128296Y124640*
X128921Y124952*
X129234Y125577*
Y126202*
X128921Y126827*
X128296Y127140*
X127359*
X126421Y126827*
X125796Y126202*
X125484Y125577*
X135561Y132746D02*
X130261D01*
Y120446*
X135561*
Y132746*
X137446Y152496D02*
Y147196D01*
X149746*
Y152496*
X137446*
X146721Y153909D02*
X147034Y153596D01*
X147659Y153284*
X148596*
X149221Y153596*
X149534Y153909*
X149846Y154534*
Y155784*
X149534Y156409*
X149221Y156722*
X148596Y157034*
X147659*
X147034Y156722*
X146721Y156409*
X144846Y154222D02*
X144534Y154846D01*
X143909Y155159*
X143284*
X142659Y154846*
X142346Y154222*
X142659Y153596*
X143284Y153284*
X143909*
X144534Y153596*
X144846Y154222*
Y155159*
X144534Y156096*
X143909Y156722*
X143284Y157034*
X173478Y13624D02*
X173166Y13311D01*
X172541Y12998*
X171916Y13311*
X171603Y13624*
Y16748*
X170978*
X171603D02*
X172853D01*
X167853Y12998D02*
X166603D01*
X167228D02*
Y16748D01*
X167853Y16124*
X202509Y27959D02*
X198759D01*
Y25771*
X199071Y25146*
X199696Y24833*
X200321Y25146*
X200634Y25771*
Y27959*
Y25771D02*
X202509Y24833D01*
X202196Y22959D02*
X202509Y22333D01*
Y21396*
X202196Y20771*
X201571Y20459*
X201259*
X200634Y20771*
X200321Y21396*
Y22959*
X198759*
Y20459*
X205446Y19691D02*
X210746D01*
Y31991*
X205446*
Y19691*
X213880Y19935D02*
X210130D01*
Y17748*
X210442Y17122*
X211067Y16810*
X211692Y17122*
X212004Y17748*
Y19935*
Y17748D02*
X213880Y16810D01*
X212004Y13998D02*
Y13372D01*
X211692Y12748*
X211067Y12435*
X210442Y12748*
X210130Y13372*
Y13998*
X210442Y14622*
X211067Y14935*
X211692Y14622*
X212004Y13998*
X212317Y14622*
X212942Y14935*
X213567Y14622*
X213880Y13998*
Y13372*
X213567Y12748*
X212942Y12435*
X212317Y12748*
X212004Y13372*
X213880Y230565D02*
X210130D01*
Y228378*
X210442Y227752*
X211067Y227440*
X211692Y227752*
X212004Y228378*
Y230565*
Y228378D02*
X213880Y227440D01*
Y224002D02*
X210130D01*
X212630Y225565*
Y223065*
X220746Y230746D02*
X215446D01*
Y218446*
X220746*
Y230746*
X221246Y25246D02*
X215946D01*
Y12946*
X221246*
Y25246*
X223722Y212848D02*
X219972D01*
Y210661*
X220284Y210036*
X220909Y209723*
X221534Y210036*
X221847Y210661*
Y212848*
Y210661D02*
X223722Y209723D01*
X223409Y207536D02*
X223722Y206911D01*
Y206286*
X223409Y205661*
X222784Y205348*
X222159Y205661*
X221847Y206286*
Y206911*
Y206286D02*
X221534Y205661D01*
X220909Y205348*
X220284Y205661*
X219972Y206286*
Y206911*
X220284Y207536*
X231246Y216746D02*
X225946D01*
Y204446*
X231246*
Y216746*
X233565Y230565D02*
X229815D01*
Y228378*
X230127Y227752*
X230752Y227440*
X231377Y227752*
X231689Y228378*
Y230565*
Y228378D02*
X233565Y227440D01*
Y223065D02*
Y225565D01*
X231377Y223378*
X230752Y223065*
X230127Y223378*
X229815Y224002*
Y224940*
X230127Y225565*
X240746Y230746D02*
X235446D01*
Y218446*
X240746*
Y230746*
X243407Y214817D02*
X239657D01*
Y212630*
X239969Y212004*
X240594Y211692*
X241219Y212004*
X241532Y212630*
Y214817*
Y212630D02*
X243407Y211692D01*
Y209192D02*
Y207942D01*
Y208567D02*
X239657D01*
X240282Y209192*
X250931Y216746D02*
X245631D01*
Y204446*
X250931*
Y216746*
X272935Y29778D02*
X269185D01*
Y27590*
X269497Y26965*
X270122Y26652*
X270747Y26965*
X271059Y27590*
Y29778*
Y27590D02*
X272935Y26652D01*
Y24778D02*
X269185Y22278D01*
Y24778*
X275446Y25946D02*
X280746D01*
Y38246*
X275446*
Y25946*
X327034Y254507D02*
X327346Y254819D01*
X327659Y255444*
Y256382*
X327346Y257007*
X327034Y257319*
X326409Y257632*
X325159*
X324534Y257319*
X324221Y257007*
X323909Y256382*
Y255444*
X324221Y254819*
X324534Y254507*
X326409Y252632D02*
X325159D01*
X324534Y252319*
X324221Y252007*
X323909Y251382*
Y250757*
X324221Y250132*
X324534Y249819*
X325159Y249507*
X326409*
X327034Y249819*
X327346Y250132*
X327659Y250757*
Y251382*
X327346Y252007*
X327034Y252319*
X326409Y252632*
X327659Y247632D02*
X323909D01*
X327659Y244507*
X323909*
X327659Y242632D02*
X323909D01*
X327659Y239507*
X323909*
X327659Y237007D02*
Y235757D01*
Y236382D02*
X323909D01*
X324534Y237007*
X358518Y381734D02*
X358205Y381421D01*
X357580Y381109*
X356955Y381421*
X356643Y381734*
Y384859*
X356018*
X356643D02*
X357893D01*
X351018Y381109D02*
X353518D01*
X351330Y383296*
X351018Y383921*
X351330Y384546*
X351955Y384859*
X352893*
X353518Y384546*
X386827Y51431D02*
X384015D01*
X383390Y51744*
X383077Y52369*
Y53619*
X383390Y54244*
X384015Y54556*
X386827*
X383077Y57056D02*
Y58306D01*
Y57681D02*
X386827D01*
X386202Y57056*
D02*
D11*
X193163Y161667D02*
X169541D01*
Y78990*
X193163*
X354581Y293557D02*
G75*
G03X358518Y297494I1969J1969D01*
G01*
G75*
G03X354581Y293557I-1969J-1969*
G01*
G36*
G75*
G03X358518Y297494I1969J1969*
G01*
G75*
G03X354581Y293557I-1969J-1969*
G01*
G37*
Y295526D02*
X338833D01*
X364423D02*
X378203D01*
X364423Y297494D02*
G75*
G02X348675Y293557I-7874J-1969D01*
G01*
G75*
G02X364423Y297494I7874J1969*
G01*
D02*
D12*
X48872Y21805D02*
Y75270D01*
X57730Y82593*
X57927Y88734*
X153596Y6057D02*
X48872D01*
X153596Y88734D02*
Y21805D01*
X179876Y151825D02*
X185781Y151333D01*
X182829Y149364*
X185781Y147396*
X179876Y146904*
X185781Y141982D02*
X181844D01*
X180368D02*
X185781Y136077*
X179876D01*
Y131156*
X182829Y132140D02*
Y136077D01*
X185781Y126234D02*
X181844D01*
X180368D02*
X185781Y112455*
X179876Y109994D01*
X185781Y107533*
X183321Y111470D02*
Y108518D01*
X185781Y104581D02*
X179876D01*
X185781Y99659*
X179876*
X185781Y94246D02*
X179876D01*
Y96707D02*
Y91785D01*
X309148Y390703D02*
X242533D01*
Y392632*
X215191*
Y342829*
X336490*
Y392632*
X309148*
Y390703*
X348675Y304876D02*
X344738D01*
X346707Y302907D02*
Y306844D01*
X340801Y303400D02*
X339817Y302907D01*
X338341*
X337356Y303400*
X336864Y304384*
Y304876*
X337356Y305860*
X338341Y306352*
X340801*
Y308813*
X336864*
X332927D02*
X330467Y302907D01*
X328006Y308813*
X382632Y285683D02*
X381156D01*
Y285191*
X381648Y284207*
X382140Y283715*
X383124Y283222*
X384108*
X385093Y283715*
X385585Y284207*
X386077Y285191*
Y287159*
X385585Y288144*
X385093Y288636*
X384108Y289128*
X383124*
X382140Y288636*
X381648Y288144*
X381156Y287159*
X378203Y283222D02*
Y289128D01*
X373281Y283222*
Y289128*
X370329Y283222D02*
Y289128D01*
X367376*
X366392Y288636*
X365900Y288144*
X365407Y287159*
Y285191*
X365900Y284207*
X366392Y283715*
X367376Y283222*
X370329*
D02*
D14*
X379140Y111648D02*
X376328D01*
X375703Y111960*
X375390Y112585*
Y113835*
X375703Y114460*
X376328Y114773*
X379140*
X376328Y116648D02*
X375703Y116960D01*
X375390Y117585*
Y118835*
X375703Y119460*
X376328Y119773*
X376953Y119460*
X377265Y118835*
Y117585*
X377578Y116960*
X378203Y116648*
X378828Y116960*
X379140Y117585*
Y118835*
X378828Y119460*
X378203Y119773*
X377265Y123835D02*
X376953Y124460D01*
X376328Y124773*
X375703Y124460*
X375390Y123835*
Y121648*
X379140*
Y123835*
X378828Y124460*
X378203Y124773*
X377578Y124460*
X377265Y123835*
Y121648*
D02*
D116*
X73675Y109994D02*
G75*
G03X74463I394D01*
G01*
X73675D02*
G75*
G02X74463I394D01*
G01*
X114197Y143596D02*
X120496D01*
X193203Y69148D02*
X190703D01*
X193203Y169148D02*
X190703D01*
X193715Y64148D02*
Y174384D01*
X253793Y340663D02*
G75*
G03X254581I394D01*
G01*
X253793D02*
G75*
G02X254581I394D01*
G01*
X334699Y243892D02*
Y238439D01*
X338608*
X360459D02*
X391785D01*
Y273872*
X334699*
Y268486*
X382691Y169266D02*
Y64148D01*
X381953*
X385703Y69148D02*
X383203D01*
X385703Y169148D02*
X383203D01*
X388203Y61648D02*
G75*
G02X386953Y64148I-625J1250D01*
G01*
G75*
G02X388203Y61648I625J-1250*
G01*
X0Y0D02*
M02*
