G04 EasyPC Gerber Version 21.0.3 Build 4286 *
%FSLAX35Y35*%
%MOIN*%
%ADD20R,0.06000X0.11000*%
%AMT20*0 Rounded Rectangle Pad at angle 0*4,1,8,-0.03000,-0.05500,0.03000,-0.05500,0.03000,-0.05500,0.03000,0.05500,0.03000,0.05500,-0.03000,0.05500,-0.03000,0.05500,-0.03000,-0.05500,-0.03000,-0.05500,0*%
%ADD20T20*%
%ADD21O,0.06000X0.11000*%
%ADD16R,0.02200X0.08600*%
%ADD71R,0.03937X0.04291*%
%ADD19R,0.05512X0.06299*%
%ADD10C,0.00500*%
%ADD14C,0.01000*%
%ADD24C,0.01500*%
%ADD25C,0.03200*%
%ADD23C,0.05600*%
%ADD17C,0.06142*%
%ADD22C,0.13780*%
%ADD15C,0.15748*%
%ADD18C,0.18012*%
%ADD70R,0.04291X0.03937*%
X0Y0D02*
D02*
D10*
X4187Y390014D02*
Y4187D01*
X390014*
Y390014*
X4187*
X10611Y19935D02*
G75*
G02X29259I9324D01*
G01*
G75*
G02X10611I-9324*
G01*
Y374266D02*
G75*
G02X29259I9324D01*
G01*
G75*
G02X10611I-9324*
G01*
X26756Y57799D02*
X34768D01*
Y49000*
X26756*
Y57799*
Y89295D02*
X34768D01*
Y80496*
X26756*
Y89295*
Y185752D02*
X34768D01*
Y176953*
X26756*
Y185752*
Y217248D02*
X34768D01*
Y208449*
X26756*
Y217248*
X300470Y43139D02*
G75*
G02X306146Y41589I2627J-1550D01*
G01*
G75*
G02X300470Y40039I-3050*
G01*
X200495*
G75*
G02X201646Y37652I-1898J-2387*
G01*
G75*
G02X195970Y36102I-3050*
G01*
X86637*
G75*
G02X80960Y37652I-2627J1550*
G01*
G75*
G02X82111Y40039I3050J0*
G01*
X52598*
G75*
G02X51500Y40493I-1J1550*
G01*
X47382Y44611*
G75*
G02X46928Y45707I1096J1096*
G01*
Y48801*
X44274*
Y57998*
X52683*
Y48801*
X50028*
Y46349*
X53239Y43139*
X300470*
X282661Y28272D02*
X290673D01*
Y19472*
X282661*
Y28272*
X300179Y28470D02*
X308589D01*
Y19274*
X305934*
Y17884*
G75*
G02X305480Y16788I-1550*
G01*
X301693Y13000*
G75*
G02X300595Y12546I-1096J1096*
G01*
X256598*
G75*
G02X255500Y13000I-1J1550*
G01*
X246954Y21546*
X235723*
G75*
G02X230046Y23096I-2627J1550*
G01*
G75*
G02X235723Y24646I3050*
G01*
X247595*
G75*
G02X248693Y24193I1J-1550*
G01*
X257239Y15646*
X299954*
X302834Y18526*
Y19274*
X300179*
Y28470*
X265470Y34146D02*
G75*
G02X271146Y32596I2627J-1550D01*
G01*
G75*
G02X265470Y31046I-3050*
G01*
X141038*
G75*
G02X135361Y32596I-2627J1550*
G01*
G75*
G02X141038Y34146I3050*
G01*
X265470*
X44274Y89494D02*
X52683D01*
Y80297*
X44274*
Y89494*
X337757Y204128D02*
G75*
G02X341146Y201096I339J-3031D01*
G01*
G75*
G02X335046I-3050*
G01*
G75*
G02X335267Y202234I3050J0*
G01*
X325954Y211546*
X90739*
X59193Y180000*
G75*
G02X58095Y179546I-1096J1096*
G01*
X52683*
Y176754*
X44274*
Y185951*
X52683*
Y182646*
X57454*
X89000Y214193*
G75*
G02X90098Y214646I1096J-1096*
G01*
X326595*
G75*
G02X327693Y214193I1J-1550*
G01*
X337757Y204128*
X105496Y166067D02*
X113508D01*
Y157268*
X105496*
Y166067*
Y197563D02*
X113508D01*
Y188764*
X105496*
Y197563*
X285319Y144054D02*
G75*
G02X290896Y142346I2527J-1707D01*
G01*
G75*
G02X285319Y140639I-3050*
G01*
X229846*
G75*
G02X228229Y141799J1707*
G01*
X218139Y151889*
X202849*
G75*
G02X201634Y152394I-2J1707*
G01*
X194135Y159960*
X131423*
Y157069*
X123014*
Y166266*
X131423*
Y163375*
X194844*
G75*
G02X196059Y162869I2J-1707*
G01*
X203558Y155304*
X218846*
G75*
G02X220055Y154802J-1707*
G01*
X230804Y144054*
X285319*
X194353Y144146D02*
G75*
G02X202453Y142346I3850J-1800D01*
G01*
G75*
G02X194353Y140546I-4250*
G01*
X157446*
G75*
G02X149346Y142346I-3850J1800*
G01*
G75*
G02X157446Y144146I4250*
G01*
X194353*
X164551Y156224D02*
X172563D01*
Y147425*
X164551*
Y156224*
X182069Y156423D02*
X190478D01*
Y147226*
X182069*
Y156423*
X123014Y197762D02*
X131423D01*
Y188565*
X123014*
Y197762*
X265470Y203146D02*
G75*
G02X271146Y201596I2627J-1550D01*
G01*
G75*
G02X265470Y200046I-3050*
G01*
X179973*
G75*
G02X174296Y201596I-2627J1550*
G01*
G75*
G02X179973Y203146I3050*
G01*
X265470*
X203921Y166067D02*
X211933D01*
Y157268*
X203921*
Y166067*
Y197563D02*
X211933D01*
Y188764*
X203921*
Y197563*
X255569Y163304D02*
G75*
G02X261146Y161596I2527J-1707D01*
G01*
G75*
G02X255569Y159889I-3050*
G01*
X229848*
Y157069*
X221439*
Y166266*
X229848*
Y163304*
X255569*
X260809Y156423D02*
X269219D01*
Y147226*
X260809*
Y156423*
X243291Y156224D02*
X251303D01*
Y147425*
X243291*
Y156224*
X221439Y197762D02*
X229848D01*
Y188565*
X221439*
Y197762*
X282661Y175909D02*
X290673D01*
Y167110*
X282661*
Y175909*
Y207406D02*
X290673D01*
Y198606*
X282661*
Y207406*
X320470Y154146D02*
G75*
G02X326146Y152596I2627J-1550D01*
G01*
G75*
G02X320470Y151046I-3050*
G01*
X312598*
G75*
G02X311500Y151500I-1J1550*
G01*
X303288Y159713*
G75*
G02X302834Y160809I1096J1096*
G01*
Y166911*
X300179*
Y176108*
X308589*
Y166911*
X305934*
Y161451*
X313239Y154146*
X320470*
X359234Y124927D02*
X367644D01*
Y115730*
X364989*
Y112689*
G75*
G02X364535Y111593I-1550*
G01*
X351693Y98750*
G75*
G02X350595Y98296I-1096J1096*
G01*
X318723*
G75*
G02X313046Y99846I-2627J1550*
G01*
G75*
G02X318723Y101396I3050*
G01*
X349954*
X361889Y113331*
Y115730*
X359234*
Y124927*
X387708Y332366D02*
G75*
G02X388162Y331270I-1096J-1096D01*
G01*
Y72112*
G75*
G02X387708Y71016I-1550*
G01*
X348193Y31500*
G75*
G02X347095Y31046I-1096J1096*
G01*
X320830*
G75*
G02X315153Y32596I-2627J1550*
G01*
G75*
G02X320830Y34146I3050*
G01*
X346454*
X385062Y72754*
Y330628*
X370533Y345157*
X360754*
X356662Y341065*
Y322388*
X358562*
Y336833*
G75*
G02X359016Y337929I1550*
G01*
X361016Y339929*
G75*
G02X362113Y340383I1096J-1096*
G01*
X373111*
G75*
G02X374208Y339929I1J-1550*
G01*
X384208Y329929*
G75*
G02X384662Y328833I-1096J-1096*
G01*
Y74112*
G75*
G02X384208Y73016I-1550*
G01*
X350693Y39500*
G75*
G02X349595Y39046I-1096J1096*
G01*
X340830*
G75*
G02X335153Y40596I-2627J1550*
G01*
G75*
G02X340830Y42146I3050*
G01*
X348954*
X381562Y74754*
Y328191*
X372470Y337283*
X362754*
X361662Y336191*
Y322388*
X372663*
Y310888*
X366912*
Y309337*
G75*
G02X365112Y307537I-1800*
G01*
X335112*
G75*
G02X333312Y309337J1800*
G01*
Y310888*
X332561*
Y313411*
X320948*
Y309837*
G75*
G02X319148Y308037I-1800*
G01*
X316030*
Y304387*
X324562*
Y305337*
G75*
G02X326112Y306887I1550*
G01*
X340112*
G75*
G02X341662Y305337J-1550*
G01*
Y303785*
X372663*
Y292285*
X371662*
Y290337*
G75*
G02X370112Y288787I-1550*
G01*
X365112*
G75*
G02X363562Y290337J1550*
G01*
Y292285*
X361662*
Y287132*
X364707*
Y280297*
X357572*
G75*
G02X357662Y279778I-1460J-520*
G01*
Y279258*
X359707*
Y272423*
X345518*
Y279258*
X348562*
Y292285*
X346662*
Y289837*
G75*
G02X345112Y288287I-1550*
G01*
X343662*
Y287132*
X345707*
Y280297*
X331518*
Y287132*
X333562*
Y292285*
X332561*
Y303785*
X338562*
Y303787*
X327662*
Y302837*
G75*
G02X326112Y301287I-1550*
G01*
X316030*
Y299242*
X309195*
Y308037*
X290858*
X249896Y267075*
Y245446*
G75*
G02X252346Y241596I-1800J-3850*
G01*
G75*
G02X244246Y239796I-4250*
G01*
X232446*
G75*
G02X224746I-3850J1800*
G01*
X201946*
G75*
G02X193846Y241596I-3850J1800*
G01*
G75*
G02X201946Y243396I4250*
G01*
X224746*
G75*
G02X232446I3850J-1800*
G01*
X244246*
G75*
G02X246296Y245446I3850J-1800*
G01*
Y267821*
G75*
G02X246825Y269095I1800*
G01*
X288838Y311108*
G75*
G02X290112Y311637I1274J-1272*
G01*
X309195*
Y313431*
X316030*
Y311637*
X317348*
Y319667*
X315990*
Y326502*
X323179*
Y319667*
X320948*
Y317011*
X332561*
Y322388*
X337663*
Y311137*
X337762*
Y322187*
X342463*
Y311137*
X342561*
Y322388*
X343562*
Y325494*
X335710Y333346*
X283865*
G75*
G02X282768Y333800I-1J1550*
G01*
X274500Y342067*
G75*
G02X274046Y343163I1096J1096*
G01*
Y345490*
G75*
G02X275841Y354161I1794J4150*
G01*
G75*
G02X277146Y345312J-4521*
G01*
Y343806*
X284506Y336446*
X336351*
G75*
G02X337448Y335992I1J-1550*
G01*
X346208Y327232*
G75*
G02X346662Y326136I-1096J-1096*
G01*
Y322388*
X348562*
Y356439*
X334254Y370747*
X288294*
X282784Y365238*
Y365068*
G75*
G02X281234Y356300I-1550J-4247*
G01*
G75*
G02X279684Y365068J4521*
G01*
Y365880*
G75*
G02X280138Y366976I1550*
G01*
X286556Y373393*
G75*
G02X287653Y373847I1096J-1096*
G01*
X334894*
G75*
G02X335992Y373393I1J-1550*
G01*
X351208Y358177*
G75*
G02X351662Y357081I-1096J-1096*
G01*
Y322388*
X353562*
Y341707*
G75*
G02X354016Y342803I1550*
G01*
X359016Y347803*
G75*
G02X360113Y348257I1096J-1096*
G01*
X371174*
G75*
G02X372271Y347803I1J-1550*
G01*
X387708Y332366*
X364717Y286933D02*
X371508D01*
Y280496*
X364717*
Y286933*
X354118Y256156D02*
G75*
G02X370398I8140D01*
G01*
G75*
G02X354118I-8140*
G01*
X359234Y156423D02*
X367644D01*
Y147226*
X359234*
Y156423*
X375603Y156800D02*
G75*
G02X376099Y155596I-1211J-1204D01*
G01*
Y106642*
G75*
G02X375598Y105433I-1707*
G01*
X356305Y86141*
G75*
G02X355096Y85639I-1209J1206*
G01*
X350624*
G75*
G02X345046Y87346I-2527J1707*
G01*
G75*
G02X350624Y89054I3050*
G01*
X354389*
X372684Y107349*
Y154892*
X365182Y162439*
X362233Y165388*
G75*
G02X361731Y166596I1206J1209*
G01*
Y176754*
X359234*
Y185951*
X367644*
Y176754*
X365146*
Y167304*
X367597Y164853*
G75*
G02X367603Y164848I-865J-937*
G01*
X375603Y156800*
X359234Y217447D02*
X367644D01*
Y208250*
X359234*
Y217447*
X329312Y256156D02*
G75*
G02X345991I8340D01*
G01*
G75*
G02X329312I-8340*
G01*
X341595Y237258D02*
G75*
G02X358275I8340D01*
G01*
G75*
G02X341595I-8340*
G01*
X341717Y124728D02*
X349728D01*
Y115929*
X341717*
Y124728*
Y156224D02*
X349728D01*
Y147425*
X341717*
Y156224*
Y185752D02*
X349728D01*
Y176953*
X341717*
Y185752*
Y217248D02*
X349728D01*
Y208449*
X341717*
Y217248*
X323189Y326303D02*
X329980D01*
Y319866*
X323189*
Y326303*
X314778Y355230D02*
G75*
G02X335289I10256D01*
G01*
G75*
G02X314778I-10256*
G01*
X292022Y365342D02*
G75*
G02X296543Y360821J-4521D01*
G01*
G75*
G02X292022Y356300I-4521*
G01*
G75*
G02X287501Y360821J4521*
G01*
G75*
G02X292022Y365342I4521*
G01*
X293094Y349640D02*
G75*
G02X301736I4321D01*
G01*
G75*
G02X293094I-4321*
G01*
X286628Y354161D02*
G75*
G02X291149Y349640J-4521D01*
G01*
G75*
G02X286628Y345119I-4521*
G01*
G75*
G02X282107Y349640J4521*
G01*
G75*
G02X286628Y354161I4521*
G01*
X364942Y19935D02*
G75*
G02X383590I9324D01*
G01*
G75*
G02X364942I-9324*
G01*
X300179Y207604D02*
X308589D01*
Y198407*
X300179*
Y207604*
X63833Y98846D02*
G75*
G02X68432Y94246J-4600D01*
G01*
G75*
G02X63833Y89646I-4600*
G01*
G75*
G02X59233Y94246J4600*
G01*
G75*
G02X63833Y98846I4600*
G01*
X66126Y126697D02*
X74138D01*
Y117898*
X66126*
Y126697*
Y158193D02*
X74138D01*
Y149394*
X66126*
Y158193*
X305556Y137784D02*
G75*
G02X311146Y136096I2541J-1688D01*
G01*
G75*
G02X305583Y134369I-3050*
G01*
X111193*
X97915Y121091*
G75*
G02X96707Y120590I-1209J1206*
G01*
X92053*
Y117699*
X83644*
Y126896*
X92053*
Y124005*
X96000*
X109278Y137283*
G75*
G02X110486Y137784I1209J-1206*
G01*
X305556*
X260970Y97146D02*
G75*
G02X266646Y95596I2627J-1550D01*
G01*
G75*
G02X260970Y94046I-3050*
G01*
X201987*
X168118Y60178*
G75*
G02X167020Y59724I-1096J1096*
G01*
X122956*
G75*
G02X117279Y61274I-2627J1550*
G01*
G75*
G02X122956Y62824I3050*
G01*
X166380*
X200248Y96693*
G75*
G02X201346Y97146I1096J-1096*
G01*
X260970*
X203921Y87327D02*
X211933D01*
Y78528*
X203921*
Y87327*
X245569Y84804D02*
G75*
G02X251146Y83096I2527J-1707D01*
G01*
G75*
G02X245569Y81389I-3050*
G01*
X229848*
Y78329*
X221439*
Y87526*
X229848*
Y84804*
X245569*
X275470Y104146D02*
G75*
G02X281146Y102596I2627J-1550D01*
G01*
G75*
G02X275470Y101046I-3050*
G01*
X185916*
X166700Y81831*
G75*
G02X165603Y81377I-1096J1096*
G01*
X131423*
Y78329*
X123014*
Y87526*
X131423*
Y84477*
X164962*
X184178Y103693*
G75*
G02X185275Y104146I1096J-1096*
G01*
X275470*
X123014Y119022D02*
X131423D01*
Y109825*
X123014*
Y119022*
X142894Y94246D02*
G75*
G02X150125I3615D01*
G01*
G75*
G02X142894I-3615*
G01*
X164551Y124728D02*
X172563D01*
Y115929*
X164551*
Y124728*
X182069Y124927D02*
X190478D01*
Y115730*
X187824*
Y113439*
G75*
G02X187370Y112343I-1550*
G01*
X182448Y107422*
G75*
G02X181351Y106968I-1096J1096*
G01*
X179973*
G75*
G02X174296Y108518I-2627J1550*
G01*
G75*
G02X179973Y110068I3050*
G01*
X180710*
X184724Y114081*
Y115730*
X182069*
Y124927*
X203921Y118823D02*
X211933D01*
Y110024*
X203921*
Y118823*
X300179Y89494D02*
X308589D01*
Y80297*
X300179*
Y83346*
X299298*
G75*
G02X298201Y83800I-1J1550*
G01*
X294000Y88000*
G75*
G02X293546Y89096I1096J1096*
G01*
Y121954*
X287454Y128046*
X220723*
G75*
G02X215046Y129596I-2627J1550*
G01*
G75*
G02X220723Y131146I3050*
G01*
X288095*
G75*
G02X289193Y130693I1J-1550*
G01*
X296193Y123693*
G75*
G02X296646Y122596I-1096J-1096*
G01*
Y89739*
X299939Y86446*
X300179*
Y89494*
Y59967D02*
X308589D01*
Y50770*
X300179*
Y59967*
X221439Y119022D02*
X229848D01*
Y109825*
X221439*
Y119022*
X260809Y124927D02*
X269219D01*
Y115730*
X266564*
Y114014*
G75*
G02X266110Y112918I-1550*
G01*
X261193Y108000*
G75*
G02X260095Y107546I-1096J1096*
G01*
X240830*
G75*
G02X235153Y109096I-2627J1550*
G01*
G75*
G02X240830Y110646I3050*
G01*
X259454*
X263464Y114656*
Y115730*
X260809*
Y124927*
X243291Y124728D02*
X251303D01*
Y115929*
X243291*
Y124728*
X282661Y59768D02*
X290673D01*
Y50969*
X282661*
Y59768*
Y89295D02*
X290673D01*
Y80496*
X282661*
Y89295*
Y120791D02*
X290673D01*
Y111992*
X282661*
Y120791*
X300179Y120990D02*
X308589D01*
Y111793*
X300179*
Y120990*
X105496Y87327D02*
X113508D01*
Y78528*
X105496*
Y87327*
Y118823D02*
X113508D01*
Y110024*
X105496*
Y118823*
X83644Y158392D02*
X92053D01*
Y149195*
X83644*
Y158392*
X44274Y217447D02*
X52683D01*
Y208250*
X44274*
Y217447*
X157393Y369405D02*
G75*
G02X158243Y368555J-850D01*
G01*
Y356355*
G75*
G02X157393Y355505I-850*
G01*
X150193*
G75*
G02X149343Y356355J850*
G01*
Y368555*
G75*
G02X150193Y369405I850*
G01*
X157393*
X159344Y364955D02*
G75*
G02X168242I4449D01*
G01*
Y359955*
G75*
G02X159344I-4449*
G01*
Y364955*
X169344D02*
G75*
G02X178242I4449D01*
G01*
Y359955*
G75*
G02X169344I-4449*
G01*
Y364955*
X179543D02*
G75*
G02X188043I4250D01*
G01*
Y359955*
G75*
G02X179543I-4250*
G01*
Y364955*
X216392Y355230D02*
G75*
G02X236904I10256D01*
G01*
G75*
G02X216392I-10256*
G01*
X254266Y354161D02*
G75*
G02X258787Y349640J-4521D01*
G01*
G75*
G02X254266Y345119I-4521*
G01*
G75*
G02X249745Y349640J4521*
G01*
G75*
G02X254266Y354161I4521*
G01*
X259659Y365342D02*
G75*
G02X264180Y360821J-4521D01*
G01*
G75*
G02X259659Y356300I-4521*
G01*
G75*
G02X255139Y360821J4521*
G01*
G75*
G02X259659Y365342I4521*
G01*
X265053Y354161D02*
G75*
G02X269574Y349640J-4521D01*
G01*
G75*
G02X265053Y345119I-4521*
G01*
G75*
G02X260532Y349640J4521*
G01*
G75*
G02X265053Y354161I4521*
G01*
X270447Y365342D02*
G75*
G02X274968Y360821J-4521D01*
G01*
G75*
G02X270447Y356300I-4521*
G01*
G75*
G02X265926Y360821J4521*
G01*
G75*
G02X270447Y365342I4521*
G01*
X364942Y374266D02*
G75*
G02X383590I9324D01*
G01*
G75*
G02X364942I-9324*
G01*
X308589Y19935D02*
G36*
Y19274D01*
X305934*
Y17884*
G75*
G02X305480Y16788I-1551J0*
G01*
X301693Y13000*
G75*
G02X300595Y12546I-1096J1096*
G01*
X256598*
G75*
G02X255500Y13000I-1J1550*
G01*
X248566Y19935*
X29259*
G75*
G02X10611I-9324*
G01*
X4437*
Y4437*
X389764*
Y19935*
X383590*
G75*
G02X364942I-9324*
G01*
X308589*
G37*
X300179D02*
G36*
X290673D01*
Y19472*
X282661*
Y19935*
X252950*
X257239Y15646*
X299954*
X302834Y18526*
Y19274*
X300179*
Y19935*
G37*
X349289Y32596D02*
G36*
X348193Y31500D01*
G75*
G02X347095Y31046I-1096J1096*
G01*
X320830*
G75*
G02X315153Y32596I-2627J1550*
G01*
X271146*
G75*
G02X265470Y31046I-3050*
G01*
X141038*
G75*
G02X135361Y32596I-2627J1550*
G01*
X4437*
Y19935*
X10611*
G75*
G02X29259I9324*
G01*
X248566*
X246954Y21546*
X235723*
G75*
G02X230046Y23096I-2627J1550*
G01*
G75*
G02X235723Y24646I3050*
G01*
X247595*
G75*
G02X248693Y24193I1J-1550*
G01*
X252950Y19935*
X282661*
Y28272*
X290673*
Y19935*
X300179*
Y28470*
X308589*
Y19935*
X364942*
G75*
G02X383590I9324*
G01*
X389764*
Y32596*
X349289*
G37*
X365707Y53400D02*
G36*
X364592D01*
X350693Y39500*
G75*
G02X349595Y39046I-1096J1096*
G01*
X340830*
G75*
G02X335153Y40596I-2627J1550*
G01*
G75*
G02X340830Y42146I3050*
G01*
X348954*
X360207Y53400*
X308589*
Y50770*
X300179*
Y53400*
X290673*
Y50969*
X282661*
Y53400*
X52683*
Y48801*
X50028*
Y46349*
X53239Y43139*
X300470*
G75*
G02X306146Y41589I2627J-1550*
G01*
G75*
G02X300470Y40039I-3050*
G01*
X200495*
G75*
G02X201646Y37652I-1900J-2388*
G01*
G75*
G02X195970Y36102I-3050*
G01*
X86637*
G75*
G02X80960Y37652I-2627J1550*
G01*
G75*
G02X82111Y40039I3051J-1*
G01*
X52598*
G75*
G02X51500Y40493I-1J1550*
G01*
X47382Y44611*
G75*
G02X46928Y45707I1097J1096*
G01*
Y48801*
X44274*
Y53400*
X34768*
Y49000*
X26756*
Y53400*
X4437*
Y32596*
X135361*
G75*
G02X141038Y34146I3050*
G01*
X265470*
G75*
G02X271146Y32596I2627J-1550*
G01*
X315153*
G75*
G02X320830Y34146I3050*
G01*
X346454*
X365707Y53400*
G37*
X370092D02*
G36*
X349289Y32596D01*
X389764*
Y53400*
X370092*
G37*
X381562Y84896D02*
G36*
X349912D01*
G75*
G02X346281I-1816J2451*
G01*
X308589*
Y80297*
X300179*
Y83346*
X299298*
G75*
G02X298201Y83800I-1J1550*
G01*
X297105Y84896*
X290673*
Y80496*
X282661*
Y84896*
X250559*
G75*
G02X251146Y83097I-2463J-1799*
G01*
Y83096*
G75*
G02X245569Y81389I-3050J0*
G01*
X229848*
Y78329*
X221439*
Y84896*
X211933*
Y78528*
X203921*
Y84896*
X192836*
X168118Y60178*
G75*
G02X167020Y59724I-1096J1096*
G01*
X122956*
G75*
G02X117279Y61274I-2627J1550*
G01*
G75*
G02X122956Y62824I3050*
G01*
X166380*
X188452Y84896*
X169765*
X166700Y81831*
G75*
G02X165603Y81377I-1096J1096*
G01*
X131423*
Y78329*
X123014*
Y84896*
X113508*
Y78528*
X105496*
Y84896*
X52683*
Y80297*
X44274*
Y84896*
X34768*
Y80496*
X26756*
Y84896*
X4437*
Y53400*
X26756*
Y57799*
X34768*
Y53400*
X44274*
Y57998*
X52683*
Y53400*
X282661*
Y59768*
X290673*
Y53400*
X300179*
Y59967*
X308589*
Y53400*
X360207*
X381562Y74754*
Y84896*
G37*
X165381D02*
G36*
X131423D01*
Y84477*
X164962*
X165381Y84896*
G37*
X245634D02*
G36*
X229848D01*
Y84804*
X245569*
G75*
G02X245634Y84896I2528J-1711*
G01*
G37*
X385062D02*
G36*
X384662D01*
Y74112*
G75*
G02X384208Y73016I-1551J0*
G01*
X364592Y53400*
X365707*
X385062Y72754*
Y84896*
G37*
X388162D02*
G36*
Y72112D01*
G75*
G02X387708Y71016I-1551J0*
G01*
X370092Y53400*
X389764*
Y84896*
X388162*
G37*
X174731Y94246D02*
G36*
X150125D01*
G75*
G02X142894I-3615*
G01*
X68432*
G75*
G02X63833Y89646I-4600*
G01*
G75*
G02X59233Y94246J4600*
G01*
X4437*
Y84896*
X26756*
Y89295*
X34768*
Y84896*
X44274*
Y89494*
X52683*
Y84896*
X105496*
Y87327*
X113508*
Y84896*
X123014*
Y87526*
X131423*
Y84896*
X165381*
X174731Y94246*
G37*
X197802D02*
G36*
X179115D01*
X169765Y84896*
X188452*
X197802Y94246*
G37*
X297105Y84896D02*
G36*
X294000Y88000D01*
G75*
G02X293546Y89096I1097J1096*
G01*
Y94246*
X266331*
G75*
G02X260970Y94046I-2735J1350*
G01*
X201987*
X192836Y84896*
X203921*
Y87327*
X211933*
Y84896*
X221439*
Y87526*
X229848*
Y84896*
X245634*
G75*
G02X250559I2463J-1799*
G01*
X282661*
Y89295*
X290673*
Y84896*
X297105*
G37*
X359581Y94246D02*
G36*
X296646D01*
Y89739*
X299939Y86446*
X300179*
Y89494*
X308589*
Y84896*
X346281*
G75*
G02X345046Y87346I1815J2450*
G01*
Y87346*
G75*
G02X350624Y89054I3050J0*
G01*
X354389*
X359581Y94246*
G37*
X385062D02*
G36*
X384662D01*
Y84896*
X385062*
Y94246*
G37*
X381562D02*
G36*
X364411D01*
X356305Y86141*
G75*
G02X355096Y85639I-1208J1205*
G01*
X350624*
G75*
G02X349912Y84896I-2527J1707*
G01*
X381562*
Y94246*
G37*
X388162D02*
G36*
Y84896D01*
X389764*
Y94246*
X388162*
G37*
X293546Y110862D02*
G36*
X264054D01*
X261193Y108000*
G75*
G02X260095Y107546I-1096J1096*
G01*
X240830*
G75*
G02X235153Y109096I-2627J1550*
G01*
G75*
G02X235716Y110862I3050J0*
G01*
X229848*
Y109825*
X221439*
Y110862*
X211933*
Y110024*
X203921*
Y110862*
X185889*
X182448Y107422*
G75*
G02X181351Y106968I-1096J1096*
G01*
X179973*
G75*
G02X174296Y108518I-2627J1550*
G01*
G75*
G02X175395Y110862I3050*
G01*
X131423*
Y109825*
X123014*
Y110862*
X113508*
Y110024*
X105496*
Y110862*
X4437*
Y94246*
X59233*
G75*
G02X63833Y98846I4600*
G01*
G75*
G02X68432Y94246J-4600*
G01*
X142894*
G75*
G02X150125I3615*
G01*
X174731*
X184178Y103693*
G75*
G02X185275Y104146I1096J-1096*
G01*
X275470*
G75*
G02X281146Y102596I2627J-1550*
G01*
G75*
G02X275470Y101046I-3050*
G01*
X185916*
X179115Y94246*
X197802*
X200248Y96693*
G75*
G02X201346Y97146I1096J-1096*
G01*
X260970*
G75*
G02X266646Y95596I2627J-1550*
G01*
G75*
G02X266331Y94246I-3050J0*
G01*
X293546*
Y110862*
G37*
X181504D02*
G36*
X179298D01*
G75*
G02X179973Y110068I-1951J-2344*
G01*
X180710*
X181504Y110862*
G37*
X259670D02*
G36*
X240690D01*
G75*
G02X240830Y110646I-2487J-1767*
G01*
X259454*
X259670Y110862*
G37*
X372684D02*
G36*
X363804D01*
X351693Y98750*
G75*
G02X350595Y98296I-1096J1096*
G01*
X318723*
G75*
G02X313046Y99846I-2627J1550*
G01*
G75*
G02X318723Y101396I3050*
G01*
X349954*
X359420Y110862*
X296646*
Y94246*
X359581*
X372684Y107349*
Y110862*
G37*
X385062D02*
G36*
X384662D01*
Y94246*
X385062*
Y110862*
G37*
X381562D02*
G36*
X376099D01*
Y106642*
Y106641*
G75*
G02X375598Y105433I-1706*
G01*
X364411Y94246*
X381562*
Y110862*
G37*
X388162D02*
G36*
Y94246D01*
X389764*
Y110862*
X388162*
G37*
X182069Y120329D02*
G36*
X172563D01*
Y115929*
X164551*
Y120329*
X92053*
Y117699*
X83644*
Y120329*
X74138*
Y117898*
X66126*
Y120329*
X4437*
Y110862*
X105496*
Y118823*
X113508*
Y110862*
X123014*
Y119022*
X131423*
Y110862*
X175395*
G75*
G02X179298I1951J-2344*
G01*
X181504*
X184724Y114081*
Y115730*
X182069*
Y120329*
G37*
X260809D02*
G36*
X251303D01*
Y115929*
X243291*
Y120329*
X190478*
Y115730*
X187824*
Y113439*
G75*
G02X187370Y112343I-1551J0*
G01*
X185889Y110862*
X203921*
Y118823*
X211933*
Y110862*
X221439*
Y119022*
X229848*
Y110862*
X235716*
G75*
G02X240690I2487J-1765*
G01*
X259670*
X263464Y114656*
Y115730*
X260809*
Y120329*
G37*
X293546D02*
G36*
X290673D01*
Y111992*
X282661*
Y120329*
X269219*
Y115730*
X266564*
Y114014*
G75*
G02X266110Y112918I-1551J0*
G01*
X264054Y110862*
X293546*
Y120329*
G37*
X359234D02*
G36*
X349728D01*
Y115929*
X341717*
Y120329*
X308589*
Y111793*
X300179*
Y120329*
X296646*
Y110862*
X359420*
X361889Y113331*
Y115730*
X359234*
Y120329*
G37*
X385062D02*
G36*
X384662D01*
Y110862*
X385062*
Y120329*
G37*
X372684D02*
G36*
X367644D01*
Y115730*
X364989*
Y112689*
G75*
G02X364535Y111593I-1551J0*
G01*
X363804Y110862*
X372684*
Y120329*
G37*
X381562D02*
G36*
X376099D01*
Y110862*
X381562*
Y120329*
G37*
X388162D02*
G36*
Y110862D01*
X389764*
Y120329*
X388162*
G37*
X372684Y142346D02*
G36*
X290896D01*
G75*
G02X285319Y140639I-3050J0*
G01*
X229846*
G75*
G02X228229Y141799J1707*
G01*
X227682Y142346*
X202453*
G75*
G02X194353Y140546I-4250*
G01*
X157446*
G75*
G02X149346Y142346I-3850J1800*
G01*
X4437*
Y120329*
X66126*
Y126697*
X74138*
Y120329*
X83644*
Y126896*
X92053*
Y124005*
X96000*
X109278Y137283*
G75*
G02X110486Y137784I1208J-1205*
G01*
X305556*
G75*
G02X311146Y136096I2541J-1688*
G01*
Y136096*
G75*
G02X305583Y134369I-3050*
G01*
X111193*
X97915Y121091*
G75*
G02X96707Y120590I-1208J1205*
G01*
X92053*
Y120329*
X164551*
Y124728*
X172563*
Y120329*
X182069*
Y124927*
X190478*
Y120329*
X243291*
Y124728*
X251303*
Y120329*
X260809*
Y124927*
X269219*
Y120329*
X282661*
Y120791*
X290673*
Y120329*
X293546*
Y121954*
X287454Y128046*
X220723*
G75*
G02X215046Y129596I-2627J1550*
G01*
G75*
G02X220723Y131146I3050*
G01*
X288095*
G75*
G02X289193Y130693I1J-1550*
G01*
X296193Y123693*
G75*
G02X296646Y122596I-1097J-1096*
G01*
Y120329*
X300179*
Y120990*
X308589*
Y120329*
X341717*
Y124728*
X349728*
Y120329*
X359234*
Y124927*
X367644*
Y120329*
X372684*
Y142346*
G37*
X385062D02*
G36*
X384662D01*
Y120329*
X385062*
Y142346*
G37*
X381562D02*
G36*
X376099D01*
Y120329*
X381562*
Y142346*
G37*
X388162D02*
G36*
Y120329D01*
X389764*
Y142346*
X388162*
G37*
X227682D02*
G36*
X218204Y151825D01*
X190478*
Y147226*
X182069*
Y151825*
X172563*
Y147425*
X164551*
Y151825*
X92053*
Y149195*
X83644*
Y151825*
X74138*
Y149394*
X66126*
Y151825*
X4437*
Y142346*
X149346*
G75*
G02X157446Y144146I4250*
G01*
X194353*
G75*
G02X202453Y142346I3850J-1800*
G01*
X227682*
G37*
X372684Y151825D02*
G36*
X367644D01*
Y147226*
X359234*
Y151825*
X349728*
Y147425*
X341717*
Y151825*
X326047*
G75*
G02X320470Y151046I-2951J772*
G01*
X312598*
G75*
G02X311500Y151500I-1J1550*
G01*
X311176Y151825*
X269219*
Y147226*
X260809*
Y151825*
X251303*
Y147425*
X243291*
Y151825*
X223033*
X230804Y144054*
X285319*
G75*
G02X290896Y142347I2527J-1707*
G01*
Y142346*
X372684*
Y151825*
G37*
X385062D02*
G36*
X384662D01*
Y142346*
X385062*
Y151825*
G37*
X381562D02*
G36*
X376099D01*
Y142346*
X381562*
Y151825*
G37*
X388162D02*
G36*
Y142346D01*
X389764*
Y151825*
X388162*
G37*
X218204D02*
G36*
X218139Y151889D01*
X202849*
G75*
G02X201634Y152394I-2J1708*
G01*
X194135Y159960*
X131423*
Y157069*
X123014*
Y161667*
X113508*
Y157268*
X105496*
Y161667*
X4437*
Y151825*
X66126*
Y158193*
X74138*
Y151825*
X83644*
Y158392*
X92053*
Y151825*
X164551*
Y156224*
X172563*
Y151825*
X182069*
Y156423*
X190478*
Y151825*
X218204*
G37*
X311176D02*
G36*
X303288Y159713D01*
G75*
G02X302834Y160809I1097J1096*
G01*
Y161667*
X261146*
G75*
G02X261146Y161597I-3044J-69*
G01*
Y161596*
G75*
G02X255569Y159889I-3050J0*
G01*
X229848*
Y157069*
X221439*
Y161667*
X211933*
Y157268*
X203921*
Y161667*
X197250*
X203558Y155304*
X218846*
G75*
G02X220055Y154802I0J-1706*
G01*
X223033Y151825*
X243291*
Y156224*
X251303*
Y151825*
X260809*
Y156423*
X269219*
Y151825*
X311176*
G37*
X372684D02*
G36*
Y154892D01*
X365949Y161667*
X305934*
Y161451*
X313239Y154146*
X320470*
G75*
G02X326146Y152596I2627J-1550*
G01*
G75*
G02X326047Y151825I-3050*
G01*
X341717*
Y156224*
X349728*
Y151825*
X359234*
Y156423*
X367644*
Y151825*
X372684*
G37*
X385062Y161667D02*
G36*
X384662D01*
Y151825*
X385062*
Y161667*
G37*
X381562D02*
G36*
X370765D01*
X375603Y156800*
G75*
G02X376099Y155596I-1213J-1205*
G01*
Y151825*
X381562*
Y161667*
G37*
X388162D02*
G36*
Y151825D01*
X389764*
Y161667*
X388162*
G37*
X300179Y171510D02*
G36*
X290673D01*
Y167110*
X282661*
Y171510*
X4437*
Y161667*
X105496*
Y166067*
X113508*
Y161667*
X123014*
Y166266*
X131423*
Y163375*
X194844*
G75*
G02X196059Y162869I2J-1708*
G01*
X197250Y161667*
X203921*
Y166067*
X211933*
Y161667*
X221439*
Y166266*
X229848*
Y163304*
X255569*
G75*
G02X261146Y161667I2527J-1707*
G01*
X302834*
Y166911*
X300179*
Y171510*
G37*
X365949Y161667D02*
G36*
X365182Y162439D01*
X362233Y165388*
G75*
G02X361731Y166596I1205J1208*
G01*
Y166596*
Y171510*
X308589*
Y166911*
X305934*
Y161667*
X365949*
G37*
X385062Y171510D02*
G36*
X384662D01*
Y161667*
X385062*
Y171510*
G37*
X381562D02*
G36*
X365146D01*
Y167304*
X367597Y164853*
G75*
G02X367603Y164848I-31J-39*
G01*
X370765Y161667*
X381562*
Y171510*
G37*
X388162D02*
G36*
Y161667D01*
X389764*
Y171510*
X388162*
G37*
X359234Y181352D02*
G36*
X349728D01*
Y176953*
X341717*
Y181352*
X60544*
X59193Y180000*
G75*
G02X58095Y179546I-1096J1096*
G01*
X52683*
Y176754*
X44274*
Y181352*
X34768*
Y176953*
X26756*
Y181352*
X4437*
Y171510*
X282661*
Y175909*
X290673*
Y171510*
X300179*
Y176108*
X308589*
Y171510*
X361731*
Y176754*
X359234*
Y181352*
G37*
X385062D02*
G36*
X384662D01*
Y171510*
X385062*
Y181352*
G37*
X381562D02*
G36*
X367644D01*
Y176754*
X365146*
Y171510*
X381562*
Y181352*
G37*
X388162D02*
G36*
Y171510D01*
X389764*
Y181352*
X388162*
G37*
X67971Y193163D02*
G36*
X4437D01*
Y181352*
X26756*
Y185752*
X34768*
Y181352*
X44274*
Y185951*
X52683*
Y182646*
X57454*
X67971Y193163*
G37*
X381562D02*
G36*
X229848D01*
Y188565*
X221439*
Y193163*
X211933*
Y188764*
X203921*
Y193163*
X131423*
Y188565*
X123014*
Y193163*
X113508*
Y188764*
X105496*
Y193163*
X72356*
X60544Y181352*
X341717*
Y185752*
X349728*
Y181352*
X359234*
Y185951*
X367644*
Y181352*
X381562*
Y193163*
G37*
X385062D02*
G36*
X384662D01*
Y181352*
X385062*
Y193163*
G37*
X388162D02*
G36*
Y181352D01*
X389764*
Y193163*
X388162*
G37*
X76404Y201596D02*
G36*
X4437D01*
Y193163*
X67971*
X76404Y201596*
G37*
X381562D02*
G36*
X341105D01*
G75*
G02X341146Y201096I-3009J-500*
G01*
G75*
G02X335046I-3050*
G01*
Y201097*
G75*
G02X335088Y201596I3049J-1*
G01*
X308589*
Y198407*
X300179*
Y201596*
X290673*
Y198606*
X282661*
Y201596*
X271146*
G75*
G02X265470Y200046I-3050*
G01*
X179973*
G75*
G02X174296Y201596I-2627J1550*
G01*
X80789*
X72356Y193163*
X105496*
Y197563*
X113508*
Y193163*
X123014*
Y197762*
X131423*
Y193163*
X203921*
Y197563*
X211933*
Y193163*
X221439*
Y197762*
X229848*
Y193163*
X381562*
Y201596*
G37*
X385062D02*
G36*
X384662D01*
Y193163*
X385062*
Y201596*
G37*
X388162D02*
G36*
Y193163D01*
X389764*
Y201596*
X388162*
G37*
X87656Y212848D02*
G36*
X52683D01*
Y208250*
X44274*
Y212848*
X34768*
Y208449*
X26756*
Y212848*
X4437*
Y201596*
X76404*
X87656Y212848*
G37*
X335088Y201596D02*
G36*
G75*
G02X335267Y202234I3009J-499D01*
G01*
X325954Y211546*
X90739*
X80789Y201596*
X174296*
G75*
G02X179973Y203146I3050*
G01*
X265470*
G75*
G02X271146Y201596I2627J-1550*
G01*
X282661*
Y207406*
X290673*
Y201596*
X300179*
Y207604*
X308589*
Y201596*
X335088*
G37*
X381562Y212848D02*
G36*
X367644D01*
Y208250*
X359234*
Y212848*
X349728*
Y208449*
X341717*
Y212848*
X329037*
X337757Y204128*
G75*
G02X341105Y201596I339J-3031*
G01*
X381562*
Y212848*
G37*
X385062D02*
G36*
X384662D01*
Y201596*
X385062*
Y212848*
G37*
X388162D02*
G36*
Y201596D01*
X389764*
Y212848*
X388162*
G37*
X381562Y237258D02*
G36*
X358275D01*
G75*
G02X341595I-8340*
G01*
X4437*
Y212848*
X26756*
Y217248*
X34768*
Y212848*
X44274*
Y217447*
X52683*
Y212848*
X87656*
X89000Y214193*
G75*
G02X90098Y214646I1096J-1096*
G01*
X326595*
G75*
G02X327693Y214193I1J-1550*
G01*
X329037Y212848*
X341717*
Y217248*
X349728*
Y212848*
X359234*
Y217447*
X367644*
Y212848*
X381562*
Y237258*
G37*
X385062D02*
G36*
X384662D01*
Y212848*
X385062*
Y237258*
G37*
X388162D02*
G36*
Y212848D01*
X389764*
Y237258*
X388162*
G37*
X381562Y256156D02*
G36*
X370398D01*
G75*
G02X354118I-8140*
G01*
X345991*
G75*
G02X329312I-8340*
G01*
X249896*
Y245446*
G75*
G02X252346Y241596I-1800J-3850*
G01*
G75*
G02X244246Y239796I-4250*
G01*
X232446*
G75*
G02X224746I-3850J1800*
G01*
X201946*
G75*
G02X193846Y241596I-3850J1800*
G01*
G75*
G02X201946Y243396I4250*
G01*
X224746*
G75*
G02X232446I3850J-1800*
G01*
X244246*
G75*
G02X246296Y245446I3852J-1802*
G01*
Y256156*
X4437*
Y237258*
X341595*
G75*
G02X358275I8340*
G01*
X381562*
Y256156*
G37*
X385062D02*
G36*
X384662D01*
Y237258*
X385062*
Y256156*
G37*
X388162D02*
G36*
Y237258D01*
X389764*
Y256156*
X388162*
G37*
X261444Y283715D02*
G36*
X4437D01*
Y256156*
X246296*
Y267821*
G75*
G02X246825Y269095I1800*
G01*
X261444Y283715*
G37*
X381562D02*
G36*
X371508D01*
Y280496*
X364717*
Y283715*
X364707*
Y280297*
X357572*
G75*
G02X357662Y279780I-1448J-518*
G01*
G75*
G02Y279778I-1484J-1*
G01*
Y279258*
X359707*
Y272423*
X345518*
Y279258*
X348562*
Y283715*
X345707*
Y280297*
X331518*
Y283715*
X266536*
X249896Y267075*
Y256156*
X329312*
G75*
G02X345991I8340*
G01*
X354118*
G75*
G02X370398I8140*
G01*
X381562*
Y283715*
G37*
X385062D02*
G36*
X384662D01*
Y256156*
X385062*
Y283715*
G37*
X388162D02*
G36*
Y256156D01*
X389764*
Y283715*
X388162*
G37*
X315990Y323085D02*
G36*
X4437D01*
Y283715*
X261444*
X288838Y311108*
G75*
G02X290112Y311637I1274J-1272*
G01*
X309195*
Y313431*
X316030*
Y311637*
X317348*
Y319667*
X315990*
Y323085*
G37*
X331518Y283715D02*
G36*
Y287132D01*
X333562*
Y292285*
X332561*
Y303785*
X338562*
Y303787*
X327662*
Y302837*
G75*
G02X326112Y301287I-1550*
G01*
X316030*
Y299242*
X309195*
Y308037*
X290858*
X266536Y283715*
X331518*
G37*
X381562Y323085D02*
G36*
X361662D01*
Y322388*
X372663*
Y310888*
X366912*
Y309337*
G75*
G02X365112Y307537I-1800*
G01*
X335112*
G75*
G02X333312Y309337J1800*
G01*
Y310888*
X332561*
Y313411*
X320948*
Y309837*
G75*
G02X319148Y308037I-1800*
G01*
X316030*
Y304387*
X324562*
Y305337*
G75*
G02X326112Y306887I1550*
G01*
X340112*
G75*
G02X341662Y305337J-1550*
G01*
Y303785*
X372663*
Y292285*
X371662*
Y290337*
G75*
G02X370112Y288787I-1550*
G01*
X365112*
G75*
G02X363562Y290337J1550*
G01*
Y292285*
X361662*
Y287132*
X364707*
Y283715*
X364717*
Y286933*
X371508*
Y283715*
X381562*
Y323085*
G37*
X343562D02*
G36*
X329980D01*
Y319866*
X323189*
Y323085*
X323179*
Y319667*
X320948*
Y317011*
X332561*
Y322388*
X337663*
Y311137*
X337762*
Y322187*
X342463*
Y311137*
X342561*
Y322388*
X343562*
Y323085*
G37*
X348562D02*
G36*
X346662D01*
Y322388*
X348562*
Y323085*
G37*
X353562D02*
G36*
X351662D01*
Y322388*
X353562*
Y323085*
G37*
X358562D02*
G36*
X356662D01*
Y322388*
X358562*
Y323085*
G37*
X348562Y283715D02*
G36*
Y292285D01*
X346662*
Y289837*
G75*
G02X345112Y288287I-1550*
G01*
X343662*
Y287132*
X345707*
Y283715*
X348562*
G37*
X385062Y323085D02*
G36*
X384662D01*
Y283715*
X385062*
Y323085*
G37*
X388162D02*
G36*
Y283715D01*
X389764*
Y323085*
X388162*
G37*
X343562D02*
G36*
Y325494D01*
X335710Y333346*
X283865*
G75*
G02X282768Y333800I-1J1550*
G01*
X274500Y342067*
G75*
G02X274046Y343163I1097J1096*
G01*
Y345490*
G75*
G02X271320Y349640I1794J4150*
G01*
X269574*
Y349639*
G75*
G02X265053Y345119I-4521*
G01*
G75*
G02X260532Y349639J4520*
G01*
Y349640*
X258787*
Y349639*
G75*
G02X254266Y345119I-4521*
G01*
G75*
G02X249745Y349639J4520*
G01*
Y349640*
X235246*
G75*
G02X218050I-8598J5591*
G01*
X4437*
Y323085*
X315990*
Y326502*
X323179*
Y323085*
X323189*
Y326303*
X329980*
Y323085*
X343562*
G37*
X348562Y349640D02*
G36*
X333631D01*
G75*
G02X316435I-8598J5591*
G01*
X301736*
G75*
G02X293094I-4321*
G01*
X291149*
Y349639*
G75*
G02X286628Y345119I-4521*
G01*
G75*
G02X282107Y349639J4520*
G01*
Y349640*
X280361*
G75*
G02X277146Y345312I-4521*
G01*
Y343806*
X284506Y336446*
X336351*
G75*
G02X337448Y335992I1J-1550*
G01*
X346208Y327232*
G75*
G02X346662Y326136I-1097J-1096*
G01*
Y323085*
X348562*
Y349640*
G37*
X388162Y323085D02*
G36*
X389764D01*
Y349640*
X351662*
Y323085*
X353562*
Y341707*
G75*
G02X354016Y342803I1551J0*
G01*
X359016Y347803*
G75*
G02X360113Y348257I1096J-1096*
G01*
X371174*
G75*
G02X372271Y347803I1J-1550*
G01*
X387708Y332366*
G75*
G02X388162Y331270I-1097J-1096*
G01*
Y323085*
G37*
X381562D02*
G36*
Y328191D01*
X372470Y337283*
X362754*
X361662Y336191*
Y323085*
X381562*
G37*
X385062D02*
G36*
Y330628D01*
X370533Y345157*
X360754*
X356662Y341065*
Y323085*
X358562*
Y336833*
G75*
G02X359016Y337929I1551J0*
G01*
X361016Y339929*
G75*
G02X362113Y340383I1096J-1096*
G01*
X373111*
G75*
G02X374208Y339929I1J-1550*
G01*
X384208Y329929*
G75*
G02X384662Y328833I-1097J-1096*
G01*
Y323085*
X385062*
G37*
X216392Y355230D02*
G36*
X4437D01*
Y349640*
X218050*
G75*
G02X216392Y355230I8598J5591*
G01*
G37*
X314778D02*
G36*
X236904D01*
G75*
G02X235246Y349640I-10256J0*
G01*
X249745*
Y349640*
G75*
G02X254266Y354161I4521*
G01*
G75*
G02X258787Y349640J-4520*
G01*
Y349640*
X260532*
Y349640*
G75*
G02X265053Y354161I4521*
G01*
G75*
G02X269574Y349640J-4520*
G01*
Y349640*
X271320*
G75*
G02X275841Y354161I4521*
G01*
G75*
G02X280361Y349640J-4521*
G01*
X282107*
Y349640*
G75*
G02X286628Y354161I4521*
G01*
G75*
G02X291149Y349640J-4520*
G01*
Y349640*
X293094*
G75*
G02X301736I4321*
G01*
X316435*
G75*
G02X314778Y355230I8598J5591*
G01*
G37*
X348562D02*
G36*
X335289D01*
G75*
G02X333631Y349640I-10256J0*
G01*
X348562*
Y355230*
G37*
X351662D02*
G36*
Y349640D01*
X389764*
Y355230*
X351662*
G37*
X216392D02*
G36*
G75*
G02X218050Y360821I10256J0D01*
G01*
X188043*
Y359955*
G75*
G02X179543I-4250*
G01*
Y360821*
X178242*
Y359955*
G75*
G02X169344I-4449*
G01*
Y360821*
X168242*
Y359955*
G75*
G02X159344I-4449*
G01*
Y360821*
X158243*
Y356355*
Y356354*
G75*
G02X157393Y355505I-850*
G01*
X150193*
G75*
G02X149343Y356354J850*
G01*
Y356355*
Y360821*
X4437*
Y355230*
X216392*
G37*
X314778D02*
G36*
G75*
G02X316435Y360821I10256J0D01*
G01*
X296543*
Y360820*
G75*
G02X292022Y356300I-4521*
G01*
G75*
G02X287501Y360820J4520*
G01*
Y360821*
X285755*
G75*
G02X281234Y356300I-4521*
G01*
G75*
G02X276713Y360821J4521*
G01*
X274968*
Y360820*
G75*
G02X270447Y356300I-4521*
G01*
G75*
G02X265926Y360820J4520*
G01*
Y360821*
X264180*
Y360820*
G75*
G02X259659Y356300I-4521*
G01*
G75*
G02X255139Y360820J4520*
G01*
Y360821*
X235246*
G75*
G02X236904Y355230I-8598J-5591*
G01*
X314778*
G37*
X348562D02*
G36*
Y356439D01*
X344180Y360821*
X333631*
G75*
G02X335289Y355230I-8598J-5591*
G01*
X348562*
G37*
X351662D02*
G36*
X389764D01*
Y360821*
X348564*
X351208Y358177*
G75*
G02X351662Y357081I-1097J-1096*
G01*
Y355230*
G37*
X348564Y360821D02*
G36*
X389764D01*
Y374266*
X383590*
G75*
G02X364942I-9324*
G01*
X29259*
G75*
G02X10611I-9324*
G01*
X4437*
Y360821*
X149343*
Y368555*
Y368555*
G75*
G02X150193Y369405I850*
G01*
X157393*
G75*
G02X158243Y368555J-850*
G01*
Y368555*
Y360821*
X159344*
Y364955*
G75*
G02X168242I4449*
G01*
Y360821*
X169344*
Y364955*
G75*
G02X178242I4449*
G01*
Y360821*
X179543*
Y364955*
G75*
G02X188043I4250*
G01*
Y360821*
X218050*
G75*
G02X235246I8598J-5591*
G01*
X255139*
Y360821*
G75*
G02X259659Y365342I4521*
G01*
G75*
G02X264180Y360821J-4520*
G01*
Y360821*
X265926*
Y360821*
G75*
G02X270447Y365342I4521*
G01*
G75*
G02X274968Y360821J-4520*
G01*
Y360821*
X276713*
G75*
G02X279684Y365068I4521*
G01*
Y365880*
G75*
G02X280138Y366976I1551J0*
G01*
X286556Y373393*
G75*
G02X287653Y373847I1096J-1096*
G01*
X334894*
G75*
G02X335992Y373393I1J-1550*
G01*
X348564Y360821*
G37*
X344180D02*
G36*
X334254Y370747D01*
X288294*
X282784Y365238*
Y365068*
G75*
G02X285755Y360821I-1550J-4247*
G01*
X287501*
Y360821*
G75*
G02X292022Y365342I4521*
G01*
G75*
G02X296543Y360821J-4520*
G01*
Y360821*
X316435*
G75*
G02X333631I8598J-5591*
G01*
X344180*
G37*
X4437Y389764D02*
G36*
Y374266D01*
X10611*
G75*
G02X29259I9324*
G01*
X364942*
G75*
G02X383590I9324*
G01*
X389764*
Y389764*
X4437*
G37*
D02*
D14*
X28506Y53400D02*
X26506D01*
X28506Y84896D02*
X26506D01*
X28506Y181352D02*
X26506D01*
X28506Y212848D02*
X26506D01*
X30762Y50750D02*
Y48750D01*
Y56049D02*
Y58049D01*
Y82246D02*
Y80246D01*
Y87545D02*
Y89545D01*
Y178703D02*
Y176703D01*
Y184002D02*
Y186002D01*
Y210199D02*
Y208199D01*
Y215498D02*
Y217498D01*
X33018Y53400D02*
X35018D01*
X33018Y84896D02*
X35018D01*
X33018Y181352D02*
X35018D01*
X33018Y212848D02*
X35018D01*
X67876Y122297D02*
X65876D01*
X67876Y153793D02*
X65876D01*
X70132Y119648D02*
Y117648D01*
Y124947D02*
Y126947D01*
Y151144D02*
Y149144D01*
Y156443D02*
Y158443D01*
X72388Y122297D02*
X74388D01*
X72388Y153793D02*
X74388D01*
X87848Y122297D02*
X96707D01*
X110486Y136077*
X141846*
X141866Y136096*
X308096*
X107246Y82927D02*
X105246D01*
X107246Y114423D02*
X105246D01*
X107246Y161667D02*
X105246D01*
X107246Y193163D02*
X105246D01*
X109502Y80278D02*
Y78278D01*
Y85577D02*
Y87577D01*
Y111774D02*
Y109774D01*
Y117073D02*
Y119073D01*
Y159018D02*
Y157018D01*
Y164317D02*
Y166317D01*
Y190514D02*
Y188514D01*
Y195813D02*
Y197813D01*
X111758Y82927D02*
X113758D01*
X111758Y114423D02*
X113758D01*
X111758Y161667D02*
X113758D01*
X111758Y193163D02*
X113758D01*
X120329Y61274D02*
X167022D01*
X201344Y95596*
X263596*
X127219Y161667D02*
X127096Y161596D01*
X194846*
X202846Y153596*
X218846*
X229846Y142596*
Y142346*
X287846*
X138411Y32596D02*
X268096D01*
X166301Y120329D02*
X164301D01*
X166301Y151825D02*
X164301D01*
X168557Y117679D02*
Y115679D01*
Y122978D02*
Y124978D01*
Y149175D02*
Y147175D01*
Y154474D02*
Y156474D01*
X170813Y120329D02*
X172813D01*
X170813Y151825D02*
X172813D01*
X177346Y108518D02*
X181352D01*
X186274Y113439*
Y120329*
X177346Y201596D02*
X268096D01*
X181293Y362455D02*
X179293D01*
X183793Y357455D02*
Y355455D01*
Y367455D02*
Y369455D01*
X186293Y362455D02*
X188293D01*
X198596Y37652D02*
X84010D01*
X205671Y82927D02*
X203671D01*
X205671Y114423D02*
X203671D01*
X205671Y161667D02*
X203671D01*
X205671Y193163D02*
X203671D01*
X207927Y80278D02*
Y78278D01*
Y85577D02*
Y87577D01*
Y111774D02*
Y109774D01*
Y117073D02*
Y119073D01*
Y159018D02*
Y157018D01*
Y164317D02*
Y166317D01*
Y190514D02*
Y188514D01*
Y195813D02*
Y197813D01*
X210183Y82927D02*
X212183D01*
X210183Y114423D02*
X212183D01*
X210183Y161667D02*
X212183D01*
X210183Y193163D02*
X212183D01*
X218096Y129596D02*
X288096D01*
X295096Y122596*
Y89096*
X299297Y84896*
X304384*
X218142Y355230D02*
X216142D01*
X226648Y346724D02*
Y344724D01*
Y363736D02*
Y365736D01*
X235154Y355230D02*
X237154D01*
X238203Y109096D02*
X260096D01*
X265014Y114014*
Y120329*
X245041D02*
X243041D01*
X245041Y151825D02*
X243041D01*
X247297Y117679D02*
Y115679D01*
Y122978D02*
Y124978D01*
Y149175D02*
Y147175D01*
Y154474D02*
Y156474D01*
X248096Y83096D02*
X225596D01*
X225644Y82927*
X249553Y120329D02*
X251553D01*
X249553Y151825D02*
X251553D01*
X258096Y161596D02*
X225596D01*
X225644Y161667*
X275841Y349640D02*
X275596D01*
Y343163*
X283864Y334896*
X336352*
X345112Y326136*
Y316637*
X278096Y102596D02*
X185274D01*
X165604Y82927*
X127219*
X284411Y23872D02*
X282411D01*
X284411Y55368D02*
X282411D01*
X284411Y84896D02*
X282411D01*
X284411Y116392D02*
X282411D01*
X284411Y171510D02*
X282411D01*
X284411Y203006D02*
X282411D01*
X286667Y21222D02*
Y19222D01*
Y26522D02*
Y28522D01*
Y52719D02*
Y50719D01*
Y58018D02*
Y60018D01*
Y82246D02*
Y80246D01*
Y87545D02*
Y89545D01*
Y113742D02*
Y111742D01*
Y119041D02*
Y121041D01*
Y168860D02*
Y166860D01*
Y174159D02*
Y176159D01*
Y200356D02*
Y198356D01*
Y205656D02*
Y207656D01*
X288923Y23872D02*
X290923D01*
X288923Y55368D02*
X290923D01*
X288923Y84896D02*
X290923D01*
X288923Y116392D02*
X290923D01*
X288923Y171510D02*
X290923D01*
X288923Y203006D02*
X290923D01*
X294844Y349640D02*
X292844D01*
X297415Y347069D02*
Y345069D01*
Y352211D02*
Y354211D01*
X299986Y349640D02*
X301986D01*
X303096Y41589D02*
X52596D01*
X48478Y45707*
Y53400*
X304384Y23872D02*
Y17884D01*
X300596Y14096*
X256596*
X247596Y23096*
X233096*
X312612Y302837D02*
X326112D01*
Y305337*
X340112*
Y298037*
X316096Y99846D02*
X350596D01*
X363439Y112689*
Y120329*
X316528Y355230D02*
X314528D01*
X323096Y152596D02*
X312596D01*
X304384Y160809*
Y171510*
X325033Y346724D02*
Y344724D01*
Y363736D02*
Y365736D01*
X326585Y321616D02*
Y319616D01*
Y324553D02*
Y326553D01*
X328230Y323085D02*
X330230D01*
X333539Y355230D02*
X335539D01*
X335112Y298037D02*
Y283715D01*
X338096Y201096D02*
Y201596D01*
X326596Y213096*
X90096*
X58096Y181096*
X48478*
Y181352*
X340112Y320437D02*
Y322435D01*
X343467Y120329D02*
X341467D01*
X343467Y151825D02*
X341467D01*
X343467Y181352D02*
X341467D01*
X343467Y212848D02*
X341467D01*
X345112Y298037D02*
Y289837D01*
X342112*
Y283715*
X345722Y117679D02*
Y115679D01*
Y122978D02*
Y124978D01*
Y149175D02*
Y147175D01*
Y154474D02*
Y156474D01*
Y178703D02*
Y176703D01*
Y184002D02*
Y186002D01*
Y210199D02*
Y208199D01*
Y215498D02*
Y217498D01*
X347978Y120329D02*
X349978D01*
X347978Y151825D02*
X349978D01*
X347978Y181352D02*
X349978D01*
X347978Y212848D02*
X349978D01*
X349112Y275841D02*
X350112D01*
Y298037*
Y316637D02*
Y357081D01*
X334896Y372297*
X287652*
X281234Y365880*
Y360821*
X355112Y316637D02*
Y341707D01*
X360112Y346707*
X371175*
X386612Y331270*
Y72112*
X347096Y32596*
X318203*
X355868Y256156D02*
X353868D01*
X356112Y275841D02*
Y279778D01*
X355112Y280778*
Y298037*
X360112D02*
Y283715D01*
X361112*
X360112Y316637D02*
Y336833D01*
X362112Y338833*
X373112*
X383112Y328833*
Y74112*
X349596Y40596*
X338203*
X362258Y249766D02*
Y247766D01*
Y262545D02*
Y264545D01*
X363439Y181352D02*
Y166596D01*
X366392Y163644*
Y163596*
X374392Y155596*
Y106642*
X355096Y87346*
X348096*
X368112Y282246D02*
Y280246D01*
Y285183D02*
Y287183D01*
X368648Y256156D02*
X370648D01*
X369758Y283715D02*
X371758D01*
X370112Y298037D02*
Y290337D01*
X365112*
Y298037*
D02*
D15*
X19935Y19935D03*
Y374266D03*
X374266Y19935D03*
Y374266D03*
D02*
D16*
X335112Y298037D03*
Y316637D03*
X340112Y298037D03*
Y316637D03*
X345112Y298037D03*
Y316637D03*
X350112Y298037D03*
Y316637D03*
X355112Y298037D03*
Y316637D03*
X360112Y298037D03*
Y316637D03*
X365112Y298037D03*
Y316637D03*
X370112Y298037D03*
Y316637D03*
D02*
D17*
X254266Y349640D03*
X259659Y360821D03*
X265053Y349640D03*
X270447Y360821D03*
X275841Y349640D03*
X281234Y360821D03*
X286628Y349640D03*
X292022Y360821D03*
X297415Y349640D03*
D02*
D18*
X226648Y355230D03*
X325033D03*
D02*
D19*
X30762Y53400D03*
Y84896D03*
Y181352D03*
Y212848D03*
X48478Y53400D03*
Y84896D03*
Y181352D03*
Y212848D03*
X70132Y122297D03*
Y153793D03*
X87848Y122297D03*
Y153793D03*
X109502Y82927D03*
Y114423D03*
Y161667D03*
Y193163D03*
X127219Y82927D03*
Y114423D03*
Y161667D03*
Y193163D03*
X168557Y120329D03*
Y151825D03*
X186274Y120329D03*
Y151825D03*
X207927Y82927D03*
Y114423D03*
Y161667D03*
Y193163D03*
X225644Y82927D03*
Y114423D03*
Y161667D03*
Y193163D03*
X247297Y120329D03*
Y151825D03*
X265014Y120329D03*
Y151825D03*
X286667Y23872D03*
Y55368D03*
Y84896D03*
Y116392D03*
Y171510D03*
Y203006D03*
X304384Y23872D03*
Y55368D03*
Y84896D03*
Y116392D03*
Y171510D03*
Y203006D03*
X345722Y120329D03*
Y151825D03*
Y181352D03*
Y212848D03*
X363439Y120329D03*
Y151825D03*
Y181352D03*
Y212848D03*
D02*
D70*
X319585Y323085D03*
X326585D03*
X335112Y283715D03*
X342112D03*
X349112Y275841D03*
X356112D03*
X361112Y283715D03*
X368112D03*
D02*
D71*
X312612Y302837D03*
Y309837D03*
D02*
D20*
X153793Y362455D03*
D02*
D21*
X163793D03*
X173793D03*
X183793D03*
D02*
D22*
X337652Y256156D03*
X349935Y237258D03*
X362258Y256156D03*
D02*
D23*
X153596Y142346D03*
X198096Y241596D03*
X198203Y142346D03*
X228596Y241596D03*
X248096D03*
D02*
D24*
X198203Y142346D02*
X153596D01*
X228596Y241596D02*
X198096D01*
X248096D02*
X228596D01*
X312612Y309837D02*
X290112D01*
X248096Y267821*
Y241596*
X319148Y315211D02*
Y321459D01*
X319585*
Y323085*
X319148Y315211D02*
Y309837D01*
X312612*
X319148Y315211D02*
X335112D01*
Y316637*
Y309337*
X365112*
Y316637*
D02*
D25*
X84010Y37652D03*
X120329Y61274D03*
X138411Y32596D03*
X177346Y108518D03*
Y201596D03*
X198596Y37652D03*
X218096Y129596D03*
X233096Y23096D03*
X238203Y109096D03*
X248096Y83096D03*
X258096Y161596D03*
X263596Y95596D03*
X268096Y32596D03*
Y201596D03*
X278096Y102596D03*
X287846Y142346D03*
X303096Y41589D03*
X308096Y136096D03*
X316096Y99846D03*
X318203Y32596D03*
X323096Y152596D03*
X338096Y201096D03*
X338203Y40596D03*
X348096Y87346D03*
X0Y0D02*
M02*
