G04 EasyPC Gerber Version 21.0.3 Build 4286 *
%FSLAX35Y35*%
%MOIN*%
%ADD78O,0.07000X0.12000*%
%ADD103R,0.03756X0.06906*%
%ADD106R,0.04500X0.27000*%
%ADD76R,0.04937X0.05291*%
%ADD102R,0.04937X0.06906*%
%ADD104R,0.06906X0.12024*%
%ADD107R,0.07300X0.07300*%
%ADD29C,0.05331*%
%ADD72C,0.07142*%
%ADD28C,0.07299*%
%ADD79C,0.14780*%
%ADD26C,0.16748*%
%ADD73C,0.19012*%
%ADD75R,0.05291X0.04937*%
%AMT105*0 Rounded Rectangle Pad at angle 0*4,1,52,-0.00456,-0.13500,0.00456,-0.13500,0.00691,-0.13485,0.00920,-0.13439,0.01143,-0.13363,0.01353,-0.13259,0.01548,-0.13129,0.01724,-0.12974,0.01879,-0.12798,0.02009,-0.12603,0.02113,-0.12393,0.02189,-0.12171,0.02234,-0.11941,0.02250,-0.11706,0.02250,0.11706,0.02235,0.11941,0.02189,0.12170,0.02113,0.12393,0.02009,0.12603,0.01879,0.12798,0.01724,0.12974,0.01548,0.13129,0.01353,0.13259,0.01143,0.13363,0.00921,0.13439,0.00691,0.13484,0.00456,0.13500,-0.00456,0.13500,-0.00691,0.13485,-0.00920,0.13439,-0.01143,0.13363,-0.01353,0.13259,-0.01548,0.13129,-0.01724,0.12974,-0.01879,0.12798,-0.02009,0.12603,-0.02113,0.12393,-0.02189,0.12171,-0.02234,0.11941,-0.02250,0.11706,-0.02250,-0.11706,-0.02235,-0.11941,-0.02189,-0.12170,-0.02113,-0.12393,-0.02009,-0.12603,-0.01879,-0.12798,-0.01724,-0.12974,-0.01548,-0.13129,-0.01353,-0.13259,-0.01143,-0.13363,-0.00921,-0.13439,-0.00691,-0.13484,-0.00456,-0.13500,0*%
%ADD105T105*%
%ADD77R,0.06000X0.11000*%
%AMT77*0 Rounded Rectangle Pad at angle 0*4,1,24,-0.03206,-0.06000,0.03206,-0.06000,0.03297,-0.05985,0.03379,-0.05944,0.03444,-0.05879,0.03486,-0.05797,0.03500,-0.05706,0.03500,0.05706,0.03485,0.05797,0.03444,0.05879,0.03379,0.05944,0.03297,0.05986,0.03206,0.06000,-0.03206,0.06000,-0.03297,0.05985,-0.03379,0.05944,-0.03444,0.05879,-0.03486,0.05797,-0.03500,0.05706,-0.03500,-0.05706,-0.03485,-0.05797,-0.03444,-0.05879,-0.03379,-0.05944,-0.03297,-0.05986,-0.03206,-0.06000,0*%
%ADD77T77*%
%ADD108R,0.08874X0.05528*%
X0Y0D02*
D02*
D26*
X19935Y19935D03*
Y374266D03*
X374266Y19935D03*
Y374266D03*
D02*
D28*
X63833Y94246D03*
D02*
D29*
X146510D03*
D02*
D72*
X254266Y349640D03*
X259659Y360821D03*
X265053Y349640D03*
X270447Y360821D03*
X275841Y349640D03*
X281234Y360821D03*
X286628Y349640D03*
X292022Y360821D03*
X297415Y349640D03*
D02*
D73*
X226648Y355230D03*
X325033D03*
D02*
D75*
X140096Y149846D03*
X147096D03*
D02*
D76*
X103911Y141096D03*
Y148096D03*
X132911Y123096D03*
Y130096D03*
X208096Y22341D03*
Y29341D03*
X218096Y221096D03*
Y228096D03*
X218596Y15596D03*
Y22596D03*
X228596Y207096D03*
Y214096D03*
X238096Y221096D03*
Y228096D03*
X248281Y207096D03*
Y214096D03*
X278096Y28596D03*
Y35596D03*
D02*
D77*
X153793Y362455D03*
D02*
D78*
X163793D03*
X173793D03*
X183793D03*
D02*
D79*
X337652Y256156D03*
X349935Y237258D03*
X362258Y256156D03*
D02*
D102*
X64325Y105270D03*
X74167D03*
X84010D03*
X93852D03*
X103695D03*
X113537D03*
X123380D03*
X132947D03*
X139640D03*
D02*
D103*
X144758D03*
X149482D03*
D02*
D104*
X47494Y13537D03*
X56156Y98183D03*
X154974Y13537D03*
Y98183D03*
D02*
D105*
X378203Y59148D03*
D02*
D106*
X198203D03*
Y179148D03*
X208203Y59148D03*
Y179148D03*
X218203Y59148D03*
Y179148D03*
X228203Y59148D03*
Y179148D03*
X238203Y59148D03*
Y179148D03*
X248203Y59148D03*
Y179148D03*
X258203Y59148D03*
Y179148D03*
X268203Y59148D03*
Y179148D03*
X278203Y59148D03*
Y179148D03*
X288203Y59148D03*
Y179148D03*
X298203Y59148D03*
Y179148D03*
X308203Y59148D03*
Y179148D03*
X318203Y59148D03*
Y179148D03*
X328203Y59148D03*
Y179148D03*
X338203Y59148D03*
Y179148D03*
X348203Y59148D03*
Y179148D03*
X358203Y59148D03*
Y179148D03*
X368203Y59148D03*
Y179148D03*
X378203D03*
D02*
D107*
X75646Y133596D03*
X89046D03*
D02*
D108*
X117346Y139069D03*
Y148124D03*
X0Y0D02*
M02*
