G04 EasyPC Gerber Version 21.0.3 Build 4286 *
%FSLAX35Y35*%
%MOIN*%
%AMT112*0 Rounded Rectangle Pad at angle 0*4,1,48,-0.00167,-0.12800,0.00167,-0.12800,0.00363,-0.12786,0.00556,-0.12744,0.00741,-0.12675,0.00915,-0.12580,0.01072,-0.12462,0.01212,-0.12323,0.01331,-0.12165,0.01425,-0.11992,0.01494,-0.11807,0.01536,-0.11614,0.01550,-0.11417,0.01550,0.11417,0.01536,0.11613,0.01494,0.11806,0.01425,0.11991,0.01330,0.12165,0.01212,0.12322,0.01073,0.12462,0.00915,0.12581,0.00742,0.12675,0.00557,0.12744,0.00364,0.12786,0.00167,0.12800,-0.00167,0.12800,-0.00363,0.12786,-0.00556,0.12744,-0.00741,0.12675,-0.00915,0.12580,-0.01072,0.12462,-0.01212,0.12323,-0.01331,0.12165,-0.01425,0.11992,-0.01494,0.11807,-0.01536,0.11614,-0.01550,0.11417,-0.01550,-0.11417,-0.01536,-0.11613,-0.01494,-0.11806,-0.01425,-0.11991,-0.01330,-0.12165,-0.01212,-0.12322,-0.01073,-0.12462,-0.00915,-0.12581,-0.00742,-0.12675,-0.00557,-0.12744,-0.00364,-0.12786,-0.00167,-0.12800,0*%
%ADD112T112*%
%ADD110R,0.02356X0.05506*%
%ADD113R,0.03100X0.25600*%
%ADD83R,0.03537X0.03891*%
%ADD109R,0.03537X0.05506*%
%ADD111R,0.05506X0.10624*%
%ADD114R,0.05900X0.05900*%
%ADD82R,0.03891X0.03537*%
%ADD115R,0.07474X0.04128*%
X0Y0D02*
D02*
D82*
X140096Y149846D03*
X147096D03*
D02*
D83*
X103911Y141096D03*
Y148096D03*
X132911Y123096D03*
Y130096D03*
X208096Y22341D03*
Y29341D03*
X218096Y221096D03*
Y228096D03*
X218596Y15596D03*
Y22596D03*
X228596Y207096D03*
Y214096D03*
X238096Y221096D03*
Y228096D03*
X248281Y207096D03*
Y214096D03*
X278096Y28596D03*
Y35596D03*
D02*
D109*
X64325Y105270D03*
X74167D03*
X84010D03*
X93852D03*
X103695D03*
X113537D03*
X123380D03*
X132947D03*
X139640D03*
D02*
D110*
X144758D03*
X149482D03*
D02*
D111*
X47494Y13537D03*
X56156Y98183D03*
X154974Y13537D03*
Y98183D03*
D02*
D112*
X378203Y59148D03*
D02*
D113*
X198203D03*
Y179148D03*
X208203Y59148D03*
Y179148D03*
X218203Y59148D03*
Y179148D03*
X228203Y59148D03*
Y179148D03*
X238203Y59148D03*
Y179148D03*
X248203Y59148D03*
Y179148D03*
X258203Y59148D03*
Y179148D03*
X268203Y59148D03*
Y179148D03*
X278203Y59148D03*
Y179148D03*
X288203Y59148D03*
Y179148D03*
X298203Y59148D03*
Y179148D03*
X308203Y59148D03*
Y179148D03*
X318203Y59148D03*
Y179148D03*
X328203Y59148D03*
Y179148D03*
X338203Y59148D03*
Y179148D03*
X348203Y59148D03*
Y179148D03*
X358203Y59148D03*
Y179148D03*
X368203Y59148D03*
Y179148D03*
X378203D03*
D02*
D114*
X75646Y133596D03*
X89046D03*
D02*
D115*
X117346Y139069D03*
Y148124D03*
X0Y0D02*
M02*
