G04 EasyPC Gerber Version 21.0.3 Build 4286 *
%FSLAX35Y35*%
%MOIN*%
%ADD80R,0.01800X0.08200*%
%ADD83R,0.03537X0.03891*%
%ADD81R,0.05112X0.05899*%
%ADD82R,0.03891X0.03537*%
X0Y0D02*
D02*
D80*
X335112Y298037D03*
Y316637D03*
X340112Y298037D03*
Y316637D03*
X345112Y298037D03*
Y316637D03*
X350112Y298037D03*
Y316637D03*
X355112Y298037D03*
Y316637D03*
X360112Y298037D03*
Y316637D03*
X365112Y298037D03*
Y316637D03*
X370112Y298037D03*
Y316637D03*
D02*
D81*
X30762Y53400D03*
Y84896D03*
Y181352D03*
Y212848D03*
X48478Y53400D03*
Y84896D03*
Y181352D03*
Y212848D03*
X70132Y122297D03*
Y153793D03*
X87848Y122297D03*
Y153793D03*
X109502Y82927D03*
Y114423D03*
Y161667D03*
Y193163D03*
X127219Y82927D03*
Y114423D03*
Y161667D03*
Y193163D03*
X168557Y120329D03*
Y151825D03*
X186274Y120329D03*
Y151825D03*
X207927Y82927D03*
Y114423D03*
Y161667D03*
Y193163D03*
X225644Y82927D03*
Y114423D03*
Y161667D03*
Y193163D03*
X247297Y120329D03*
Y151825D03*
X265014Y120329D03*
Y151825D03*
X286667Y23872D03*
Y55368D03*
Y84896D03*
Y116392D03*
Y171510D03*
Y203006D03*
X304384Y23872D03*
Y55368D03*
Y84896D03*
Y116392D03*
Y171510D03*
Y203006D03*
X345722Y120329D03*
Y151825D03*
Y181352D03*
Y212848D03*
X363439Y120329D03*
Y151825D03*
Y181352D03*
Y212848D03*
D02*
D82*
X319585Y323085D03*
X326585D03*
X335112Y283715D03*
X342112D03*
X349112Y275841D03*
X356112D03*
X361112Y283715D03*
X368112D03*
D02*
D83*
X312612Y302837D03*
Y309837D03*
X0Y0D02*
M02*
